<!DOCTYPE svg PUBLIC "-//W3C//DTD SVG 20010904//EN" "http://www.w3.org/TR/2001/REC-SVG-20010904/DTD/svg10.dtd">
<svg version="1.0" xmlns="http://www.w3.org/2000/svg" width="268px" height="232px" viewBox="0 0 2680 2320" preserveAspectRatio="xMidYMid meet">
<g id="layer101" fill="#232013" stroke="none">
 <path d="M0 1160 l0 -1160 1340 0 1340 0 0 1160 0 1160 -1340 0 -1340 0 0 -1160z"/>
 </g>
<g id="layer102" fill="#4f371e" stroke="none">
 <path d="M0 1160 l0 -1160 1340 0 1340 0 0 1160 0 1160 -1340 0 -1340 0 0 -1160z m82 -952 c-16 -16 -15 -50 1 -68 10 -12 9 -12 -5 -1 -21 15 -24 51 -6 69 7 7 14 12 17 12 3 0 0 -5 -7 -12z m93 -27 c0 -22 -3 -37 -7 -34 -14 8 -8 73 6 73 1 0 1 -18 1 -39z m75 0 c0 -9 -5 -23 -11 -31 -8 -11 -9 -8 -4 13 3 18 1 35 -7 45 -12 15 -11 16 5 3 9 -7 17 -21 17 -30z m40 29 c0 -5 -4 -10 -10 -10 -5 0 -10 5 -10 10 0 6 5 10 10 10 6 0 10 -4 10 -10z m82 -27 c-5 -59 -10 -63 -11 -10 -1 26 3 47 7 47 4 0 6 -17 4 -37z m105 -30 c-2 -16 -4 -5 -4 22 0 28 2 40 4 28 2 -13 2 -35 0 -50z m88 22 c0 -25 -3 -45 -7 -45 -5 0 -8 20 -8 45 0 25 3 45 8 45 4 0 7 -20 7 -45z m127 1 c-10 -27 -19 -40 -24 -33 -4 6 -3 14 2 17 5 3 12 18 15 33 4 15 11 27 15 27 4 0 0 -20 -8 -44z m56 -16 c-7 -17 -16 -30 -21 -30 -4 0 -1 13 8 30 8 16 16 37 16 47 1 17 2 17 6 0 2 -9 -1 -31 -9 -47z m-310 -2 c-13 -26 -15 -22 -10 20 4 29 6 33 12 17 4 -11 3 -28 -2 -37z m-151 2 c-1 -16 -5 -30 -9 -30 -4 0 -6 13 -5 30 1 16 5 30 9 30 4 0 6 -13 5 -30z m237 -10 c-6 -6 -10 -3 -10 10 0 13 4 16 10 10 7 -7 7 -13 0 -20z"/>
 </g>
<g id="layer103" fill="#695024" stroke="none">
 <path d="M0 1160 l0 -1160 1340 0 1340 0 0 1160 0 1160 -1340 0 -1340 0 0 -1160z m78 -966 c-9 -20 -9 -30 2 -47 12 -20 12 -21 -3 -8 -20 16 -22 52 -5 69 18 18 19 15 6 -14z m104 14 c-7 -7 -12 -21 -12 -33 0 -12 5 -26 12 -33 7 -7 9 -12 5 -12 -3 0 -14 11 -22 24 -13 19 -14 29 -5 45 6 12 16 21 22 21 9 0 9 -3 0 -12z m68 -32 c0 -23 -17 -46 -33 -46 -5 0 -4 7 3 15 7 8 10 28 8 45 -4 24 -2 27 9 19 7 -7 13 -21 13 -33z m40 -1 c0 -25 -4 -45 -10 -45 -5 0 -10 20 -10 45 0 25 5 45 10 45 6 0 10 -20 10 -45z m90 0 c0 -25 -4 -45 -10 -45 -5 0 -10 20 -10 45 0 25 5 45 10 45 6 0 10 -20 10 -45z m70 4 c0 -20 -25 -49 -43 -49 -6 0 -3 6 8 13 14 11 17 21 12 47 -6 28 -5 31 8 20 8 -7 15 -21 15 -31z m32 -4 c-2 -25 -7 -45 -11 -45 -3 0 -5 20 -3 45 2 25 7 45 11 45 3 0 5 -20 3 -45z m86 0 c1 -25 -2 -45 -8 -45 -5 0 -10 20 -10 45 0 25 4 45 8 45 5 0 10 -20 10 -45z m79 28 c-4 -3 -7 0 -7 7 0 7 3 10 7 7 3 -4 3 -10 0 -14z m46 -29 c-10 -30 -19 -42 -25 -36 -6 6 -7 16 -2 24 5 7 9 15 10 18 3 17 17 40 24 40 5 0 2 -21 -7 -46z m67 26 c0 -24 -20 -70 -31 -70 -9 0 -1 28 14 47 5 7 7 20 3 28 -3 8 -1 15 4 15 6 0 10 -9 10 -20z m-103 -27 c-4 -3 -7 0 -7 7 0 7 3 10 7 7 3 -4 3 -10 0 -14z m-127 -18 c0 -8 -4 -17 -10 -20 -6 -4 -10 5 -10 20 0 15 4 24 10 20 6 -3 10 -12 10 -20z"/>
 </g>
<g id="layer104" fill="#6b6649" stroke="none">
 <path d="M0 1160 l0 -1160 1340 0 1340 0 0 1160 0 1160 -1340 0 -1340 0 0 -1160z m231 -940 c22 -12 26 -59 7 -78 -17 -17 -33 -15 -19 2 18 21 10 70 -11 74 -25 5 -44 -39 -29 -67 14 -25 3 -28 -15 -3 -19 24 -17 39 6 62 23 23 33 24 61 10z m149 -46 c0 -60 -17 -56 -22 5 -2 36 0 47 10 44 7 -3 12 -23 12 -49z m190 0 c0 -29 -4 -44 -12 -44 -9 0 -13 16 -13 49 0 35 4 47 13 44 7 -3 12 -23 12 -49z m80 30 c0 -19 29 -18 36 1 8 21 25 19 18 -2 -15 -48 -27 -73 -34 -73 -4 0 -12 17 -19 38 -7 20 -15 43 -18 51 -3 9 -1 11 6 7 6 -4 11 -14 11 -22z m-567 -1 c-10 -22 -10 -44 0 -60 5 -8 4 -13 -3 -13 -19 0 -33 45 -21 69 14 25 35 29 24 4z m54 10 c-4 -3 -10 -3 -14 0 -3 4 0 7 7 7 7 0 10 -3 7 -7z m153 -38 c0 -29 -4 -45 -13 -45 -8 0 -11 14 -9 45 2 25 8 45 13 45 5 0 9 -20 9 -45z m47 38 c-4 -3 -10 -3 -14 0 -3 4 0 7 7 7 7 0 10 -3 7 -7z m101 -5 c24 -24 2 -79 -31 -78 -7 0 -4 5 6 11 20 12 23 49 5 67 -7 7 -8 12 -2 12 6 0 15 -5 22 -12z m50 -33 c0 -25 -6 -45 -12 -45 -7 0 -10 17 -8 45 2 25 8 45 13 45 5 0 8 -20 7 -45z m276 30 c-4 -8 1 -26 10 -40 22 -33 20 -42 -3 -14 l-18 23 -7 -22 c-4 -12 -14 -22 -22 -22 -13 0 -13 3 0 22 9 12 16 33 16 45 0 14 6 23 15 23 9 0 12 -6 9 -15z m-237 -59 c-10 -26 -25 -18 -19 10 3 17 8 22 15 15 5 -5 7 -17 4 -25z m-387 -6 c0 -5 -5 -10 -11 -10 -5 0 -7 5 -4 10 3 6 8 10 11 10 2 0 4 -4 4 -10z"/>
 <path d="M660 169 c0 -5 5 -7 10 -4 6 3 10 8 10 11 0 2 -4 4 -10 4 -5 0 -10 -5 -10 -11z"/>
 </g>
<g id="layer105" fill="#9b6a2d" stroke="none">
 <path d="M0 1160 l0 -1160 1340 0 1340 0 0 1160 0 1160 -1340 0 -1340 0 0 -1160z m231 -940 c22 -12 26 -59 7 -78 -17 -17 -33 -15 -19 2 18 21 10 70 -11 74 -25 5 -44 -39 -29 -67 7 -13 8 -21 2 -21 -11 0 -31 32 -31 49 0 6 9 20 20 31 23 23 33 24 61 10z m149 -40 c0 -65 -17 -65 -22 0 -2 35 1 50 10 50 8 0 12 -17 12 -50z m110 -6 c0 -29 -4 -44 -13 -44 -10 0 -15 54 -8 98 1 2 6 0 11 -3 6 -3 10 -26 10 -51z m80 0 c0 -29 -4 -44 -12 -44 -9 0 -13 16 -13 49 0 35 4 47 13 44 7 -3 12 -23 12 -49z m80 30 c0 -19 29 -18 36 1 13 34 22 12 11 -27 -16 -54 -31 -58 -46 -11 -7 21 -15 44 -18 52 -3 9 -1 11 6 7 6 -4 11 -14 11 -22z m-565 -29 c0 -50 -10 -58 -26 -21 -8 17 -8 29 0 45 18 33 26 25 26 -24z m52 38 c-4 -3 -10 -3 -14 0 -3 4 0 7 7 7 7 0 10 -3 7 -7z m153 -38 c0 -29 -4 -45 -13 -45 -8 0 -11 14 -9 45 2 25 8 45 13 45 5 0 9 -20 9 -45z m47 38 c-4 -3 -10 -3 -14 0 -3 4 0 7 7 7 7 0 10 -3 7 -7z m101 -5 c7 -7 12 -20 12 -29 0 -19 -25 -49 -41 -49 -6 0 -3 7 5 16 19 18 21 45 4 62 -7 7 -8 12 -2 12 6 0 15 -5 22 -12z m326 -3 c-4 -8 1 -26 10 -40 21 -32 21 -46 -1 -16 l-16 24 -8 -21 c-5 -12 -16 -22 -24 -22 -15 0 -15 2 -1 22 9 12 16 33 16 45 0 14 6 23 15 23 9 0 12 -6 9 -15z m-237 -59 c-10 -26 -25 -18 -19 10 3 17 8 22 15 15 5 -5 7 -17 4 -25z m-387 -6 c0 -5 -5 -10 -11 -10 -5 0 -7 5 -4 10 3 6 8 10 11 10 2 0 4 -4 4 -10z"/>
 <path d="M660 169 c0 -5 5 -7 10 -4 6 3 10 8 10 11 0 2 -4 4 -10 4 -5 0 -10 -5 -10 -11z"/>
 </g>
<g id="layer106" fill="#bd592e" stroke="none">
 <path d="M0 1160 l0 -1160 1340 0 1340 0 0 1160 0 1160 -1340 0 -1340 0 0 -1160z m139 -944 c10 -12 16 -12 41 2 23 13 34 14 47 6 33 -20 25 -94 -10 -94 -7 0 -7 4 1 12 17 17 15 67 -4 75 -8 3 -20 1 -26 -5 -15 -15 -13 -63 3 -74 11 -7 9 -8 -6 -6 -12 2 -23 15 -29 34 -12 39 -41 60 -62 43 -19 -16 -18 -59 4 -75 16 -13 16 -14 -3 -7 -32 10 -45 24 -45 49 0 41 64 70 89 40z m146 6 c6 -4 10 -26 10 -50 0 -31 -4 -42 -15 -42 -11 0 -15 12 -15 50 0 51 2 55 20 42z m50 -3 c11 -17 -1 -21 -15 -4 -8 9 -8 15 -2 15 6 0 14 -5 17 -11z m93 -5 c24 -17 29 -53 10 -72 -7 -7 -28 -12 -47 -12 l-36 0 0 50 c0 47 1 50 25 50 14 0 36 -7 48 -16z m62 -29 c0 -25 5 -45 11 -45 5 0 9 9 7 20 -2 10 2 20 7 22 16 5 18 -37 2 -50 -7 -6 -23 -9 -34 -6 -18 5 -21 14 -21 55 -1 36 3 49 14 49 10 0 14 -12 14 -45z m128 25 c4 -12 2 -13 -9 -2 -26 24 -39 14 -39 -33 0 -30 -4 -45 -13 -45 -9 0 -12 11 -9 35 2 19 -1 41 -7 49 -10 11 -4 14 30 12 28 -1 44 -6 47 -16z m32 -6 c0 -9 7 -14 16 -12 8 2 14 7 14 12 -2 9 19 26 32 26 10 0 -28 -94 -40 -98 -5 -1 -17 18 -26 44 -19 56 -19 57 -6 49 6 -3 10 -13 10 -21z m105 18 c6 -4 10 -14 10 -22 -1 -8 4 -25 12 -37 15 -26 16 -33 4 -33 -5 0 -12 10 -16 23 l-8 22 -4 -22 c-3 -15 -12 -23 -25 -23 -20 0 -20 1 -3 26 9 14 15 37 12 50 -4 25 0 29 18 16z m-615 -82 c0 -5 -5 -10 -11 -10 -5 0 -7 5 -4 10 3 6 8 10 11 10 2 0 4 -4 4 -10z"/>
 <path d="M387 213 c-13 -13 -7 -73 7 -73 25 0 37 25 26 54 -9 26 -20 32 -33 19z"/>
 <path d="M663 173 c4 -3 10 -3 14 0 3 4 0 7 -7 7 -7 0 -10 -3 -7 -7z"/>
 </g>
<g id="layer107" fill="#c9641e" stroke="none">
 <path d="M0 1160 l0 -1160 1340 0 1340 0 0 1160 0 1160 -1340 0 -1340 0 0 -1160z m1047 153 c-4 -3 -7 0 -7 7 0 7 3 10 7 7 3 -4 3 -10 0 -14z m103 -19 c24 -7 24 -7 5 -15 -19 -7 -19 -8 2 -8 12 -1 27 -9 32 -18 6 -10 11 -12 11 -5 0 19 80 16 80 -3 0 -8 4 -15 10 -15 5 0 7 7 4 15 -10 25 31 18 52 -9 10 -14 28 -27 41 -31 13 -3 23 -13 23 -23 -1 -23 -31 -59 -54 -64 -32 -5 -27 -21 14 -53 59 -44 83 -86 74 -130 -5 -29 -10 -35 -25 -30 -31 10 -60 -4 -58 -28 0 -12 1 -28 0 -34 -1 -15 -37 -17 -46 -3 -11 18 -35 10 -45 -15 -10 -26 -52 -36 -65 -14 -5 7 -15 5 -30 -5 -24 -16 -55 -12 -55 5 0 22 -28 6 -41 -23 -8 -18 -21 -33 -29 -33 -8 0 -14 -8 -14 -17 1 -9 -4 -19 -12 -22 -14 -5 -9 18 9 42 5 7 11 23 12 36 2 13 11 40 20 60 20 42 16 53 -14 37 -25 -14 -36 1 -21 29 17 32 -11 36 -95 13 l-73 -19 4 20 c2 12 11 26 19 32 25 18 17 24 -31 24 -26 0 -43 4 -39 9 3 6 20 8 37 6 33 -4 60 12 79 47 7 14 3 20 -18 31 -16 8 -32 13 -38 11 -12 -4 -37 15 -50 40 -7 12 -25 20 -55 22 -56 5 -65 14 -13 14 22 0 62 7 89 15 27 9 74 20 104 25 38 7 60 17 72 32 10 13 18 17 18 11 0 -28 20 -11 20 16 0 39 21 45 90 25z m310 -284 c0 -5 -2 -10 -4 -10 -3 0 -8 5 -11 10 -3 6 -1 10 4 10 6 0 11 -4 11 -10z m-1321 -794 c10 -12 16 -12 41 2 23 13 34 14 47 6 33 -20 25 -94 -10 -94 -7 0 -7 4 1 12 17 17 15 67 -4 75 -8 3 -20 1 -26 -5 -15 -15 -13 -63 3 -74 11 -7 9 -8 -6 -6 -12 2 -23 15 -29 34 -12 39 -41 60 -62 43 -19 -16 -18 -59 4 -75 16 -13 16 -14 -3 -7 -32 10 -45 24 -45 49 0 41 64 70 89 40z m146 6 c6 -4 10 -26 10 -50 0 -31 -4 -42 -15 -42 -11 0 -15 12 -15 50 0 51 2 55 20 42z m50 -3 c11 -17 -1 -21 -15 -4 -8 9 -8 15 -2 15 6 0 14 -5 17 -11z m93 -5 c24 -17 29 -53 10 -72 -7 -7 -28 -12 -47 -12 l-36 0 0 50 c0 47 1 50 25 50 14 0 36 -7 48 -16z m62 -29 c0 -25 5 -45 11 -45 5 0 9 9 7 20 -2 10 2 20 7 22 16 5 18 -37 2 -50 -7 -6 -23 -9 -34 -6 -18 5 -21 14 -21 55 -1 36 3 49 14 49 10 0 14 -12 14 -45z m128 25 c4 -12 2 -13 -9 -2 -26 24 -39 14 -39 -33 0 -30 -4 -45 -13 -45 -9 0 -12 11 -9 35 2 19 -1 41 -7 49 -10 11 -4 14 30 12 28 -1 44 -6 47 -16z m32 -6 c0 -9 7 -14 16 -12 8 2 14 7 14 12 -2 9 19 26 32 26 10 0 -28 -94 -40 -98 -5 -1 -17 18 -26 44 -19 56 -19 57 -6 49 6 -3 10 -13 10 -21z m105 18 c6 -4 10 -14 10 -22 -1 -8 4 -25 12 -37 15 -26 16 -33 4 -33 -5 0 -12 10 -16 23 l-8 22 -4 -22 c-3 -15 -12 -23 -25 -23 -20 0 -20 1 -3 26 9 14 15 37 12 50 -4 25 0 29 18 16z m-615 -82 c0 -5 -5 -10 -11 -10 -5 0 -7 5 -4 10 3 6 8 10 11 10 2 0 4 -4 4 -10z"/>
 <path d="M1093 1283 c4 -3 10 -3 14 0 3 4 0 7 -7 7 -7 0 -10 -3 -7 -7z"/>
 <path d="M387 213 c-13 -13 -7 -73 7 -73 25 0 37 25 26 54 -9 26 -20 32 -33 19z"/>
 <path d="M663 173 c4 -3 10 -3 14 0 3 4 0 7 -7 7 -7 0 -10 -3 -7 -7z"/>
 </g>
<g id="layer108" fill="#b17748" stroke="none">
 <path d="M0 1160 l0 -1160 1340 0 1340 0 0 1160 0 1160 -1340 0 -1340 0 0 -1160z m1047 153 c-4 -3 -7 0 -7 7 0 7 3 10 7 7 3 -4 3 -10 0 -14z m103 -19 c24 -7 24 -7 5 -15 -19 -7 -19 -8 2 -8 12 -1 27 -9 32 -18 6 -10 11 -12 11 -5 0 19 80 16 80 -3 0 -8 4 -15 10 -15 5 0 7 7 4 15 -10 25 31 18 52 -9 10 -14 28 -27 41 -31 13 -3 23 -13 23 -23 -1 -23 -31 -59 -54 -64 -32 -5 -27 -21 14 -53 59 -44 83 -86 74 -130 -5 -29 -10 -35 -25 -30 -31 10 -60 -4 -58 -28 0 -12 1 -28 0 -34 -1 -15 -37 -18 -45 -4 -9 14 -46 1 -46 -15 0 -8 -7 -17 -15 -20 -8 -4 -15 -13 -15 -21 0 -11 -7 -7 -21 11 -17 21 -24 24 -40 15 -11 -5 -17 -14 -14 -20 11 -16 -11 -10 -33 11 -30 28 -40 25 -50 -12 -6 -23 -14 -33 -28 -33 -12 0 -19 -7 -19 -19 0 -11 -5 -21 -12 -23 -14 -5 -11 14 7 47 8 14 13 29 12 33 -1 4 7 26 18 49 11 23 20 45 20 50 0 16 -22 7 -47 -19 l-26 -28 7 25 c19 70 19 80 1 80 -32 0 -140 -32 -148 -43 -4 -7 -5 1 -2 18 2 16 11 35 20 41 23 17 18 26 -12 23 -45 -3 -65 0 -58 11 3 5 21 7 40 5 28 -4 38 0 59 26 26 31 26 55 -1 45 -8 -3 -11 -1 -8 4 6 10 -6 14 -37 11 -10 -1 -18 3 -18 8 0 6 -7 11 -16 11 -10 0 -14 6 -11 15 8 19 -7 27 -53 31 -21 2 -48 8 -61 13 -18 7 -10 8 28 4 36 -4 72 0 120 15 37 11 86 22 108 26 24 3 46 14 57 28 10 13 18 17 18 11 0 -28 20 -11 20 16 0 39 21 45 90 25z m310 -284 c0 -5 -2 -10 -4 -10 -3 0 -8 5 -11 10 -3 6 -1 10 4 10 6 0 11 -4 11 -10z m-303 -282 c-3 -8 -6 -5 -6 6 -1 11 2 17 5 13 3 -3 4 -12 1 -19z m-1018 -512 c10 -12 16 -12 41 2 23 13 34 14 47 6 33 -20 25 -94 -10 -94 -7 0 -7 4 1 12 17 17 15 67 -4 75 -8 3 -20 1 -26 -5 -15 -15 -13 -63 3 -74 11 -7 9 -8 -6 -6 -12 2 -23 15 -29 34 -12 39 -41 60 -62 43 -19 -16 -19 -69 1 -69 8 0 15 -4 15 -10 0 -10 -27 -3 -47 13 -20 15 -15 54 9 71 28 20 52 20 67 2z m146 6 c6 -4 10 -26 10 -50 0 -31 -4 -42 -15 -42 -11 0 -15 12 -15 50 0 51 2 55 20 42z m50 -3 c11 -17 -1 -21 -15 -4 -8 9 -8 15 -2 15 6 0 14 -5 17 -11z m93 -5 c24 -17 29 -53 10 -72 -7 -7 -28 -12 -47 -12 l-36 0 0 50 c0 47 1 50 25 50 14 0 36 -7 48 -16z m62 -29 c0 -26 5 -45 11 -45 7 0 9 10 5 26 -5 19 -3 25 6 22 18 -6 22 -42 5 -56 -7 -6 -23 -9 -34 -6 -18 5 -21 14 -21 55 -1 36 3 49 14 49 10 0 14 -12 14 -45z m128 25 c4 -12 2 -13 -9 -2 -26 24 -39 14 -39 -33 0 -30 -4 -45 -13 -45 -9 0 -12 11 -9 35 2 19 -1 41 -7 49 -10 11 -4 14 30 12 28 -1 44 -6 47 -16z m32 -6 c0 -9 7 -14 16 -12 8 2 14 7 14 12 -2 9 19 26 32 26 10 0 -28 -94 -40 -98 -5 -1 -17 18 -26 44 -19 56 -19 57 -6 49 6 -3 10 -13 10 -21z m105 18 c6 -4 10 -14 10 -22 -1 -8 4 -25 12 -37 15 -26 16 -33 4 -33 -5 0 -12 10 -16 23 l-8 22 -4 -22 c-3 -15 -12 -23 -25 -23 -20 0 -20 1 -3 26 9 14 15 37 12 50 -4 25 0 29 18 16z m-615 -82 c0 -5 -5 -10 -11 -10 -5 0 -7 5 -4 10 3 6 8 10 11 10 2 0 4 -4 4 -10z"/>
 <path d="M1093 1283 c4 -3 10 -3 14 0 3 4 0 7 -7 7 -7 0 -10 -3 -7 -7z"/>
 <path d="M387 213 c-13 -13 -7 -73 7 -73 25 0 37 25 26 54 -9 26 -20 32 -33 19z"/>
 <path d="M663 173 c4 -3 10 -3 14 0 3 4 0 7 -7 7 -7 0 -10 -3 -7 -7z"/>
 </g>
<g id="layer109" fill="#d46f34" stroke="none">
 <path d="M0 1160 l0 -1160 1340 0 1340 0 0 1160 0 1160 -1340 0 -1340 0 0 -1160z m1047 153 c-4 -3 -7 0 -7 7 0 7 3 10 7 7 3 -4 3 -10 0 -14z m103 -19 c24 -7 24 -7 5 -15 -19 -7 -19 -8 2 -8 12 -1 27 -9 32 -18 6 -10 11 -12 11 -5 0 19 80 16 80 -3 0 -8 4 -15 10 -15 5 0 7 7 4 15 -10 25 31 18 52 -9 10 -14 28 -27 41 -31 13 -3 23 -13 23 -23 -1 -23 -31 -59 -54 -64 -32 -5 -27 -21 14 -53 59 -44 83 -86 74 -130 -5 -29 -10 -35 -25 -30 -31 10 -60 -4 -58 -28 0 -12 1 -28 0 -34 -1 -15 -37 -18 -45 -4 -9 14 -46 1 -46 -15 0 -8 -7 -17 -15 -20 -8 -4 -15 -13 -15 -21 0 -11 -7 -7 -21 11 -17 21 -24 24 -40 15 -11 -5 -17 -14 -14 -20 11 -16 -11 -10 -33 11 -30 28 -40 25 -50 -12 -6 -23 -14 -33 -28 -33 -12 0 -19 -7 -19 -19 0 -11 -5 -21 -12 -23 -14 -5 -11 14 7 47 8 14 13 29 12 33 -1 4 7 26 18 49 11 23 20 45 20 50 0 16 -22 7 -47 -19 l-26 -28 7 25 c19 70 19 80 1 80 -32 0 -140 -32 -148 -43 -4 -7 -5 1 -2 18 2 16 11 35 20 41 23 17 18 26 -12 23 -45 -3 -65 0 -58 11 3 5 21 7 40 5 28 -4 38 0 59 26 26 31 26 55 -1 45 -8 -3 -11 -1 -8 4 6 10 -6 14 -37 11 -10 -1 -18 3 -18 8 0 6 -7 11 -16 11 -10 0 -14 6 -11 15 8 19 -7 27 -53 31 -21 2 -48 8 -61 13 -18 7 -10 8 28 4 36 -4 72 0 120 15 37 11 86 22 108 26 24 3 46 14 57 28 10 13 18 17 18 11 0 -28 20 -11 20 16 0 39 21 45 90 25z m310 -284 c0 -5 -2 -10 -4 -10 -3 0 -8 5 -11 10 -3 6 -1 10 4 10 6 0 11 -4 11 -10z m-303 -282 c-3 -8 -6 -5 -6 6 -1 11 2 17 5 13 3 -3 4 -12 1 -19z m-1017 -513 c15 -14 18 -14 30 0 15 18 54 20 67 3 35 -45 15 -91 -37 -86 -29 2 -37 8 -44 34 -18 62 -81 66 -74 5 2 -21 8 -26 31 -26 32 1 36 -11 7 -20 -29 -9 -70 20 -70 50 0 24 33 55 59 55 8 0 22 -7 31 -15z m198 -5 c5 -13 3 -13 -11 -2 -25 21 -39 4 -35 -39 3 -30 0 -39 -12 -39 -11 0 -15 12 -15 50 l0 51 34 -3 c20 -2 37 -9 39 -18z m90 4 c47 -33 8 -103 -48 -86 -22 6 -25 13 -26 55 0 44 1 47 26 47 14 0 36 -7 48 -16z m62 -29 c0 -26 5 -45 11 -45 7 0 9 10 5 26 -5 19 -3 25 6 22 18 -6 22 -42 5 -56 -7 -6 -23 -9 -35 -5 -19 5 -22 12 -22 54 0 37 4 49 15 49 11 0 15 -12 15 -45z m128 25 c5 -13 3 -13 -11 -2 -24 20 -39 5 -36 -39 2 -21 0 -39 -4 -39 -4 0 -11 0 -15 0 -4 0 -6 16 -4 35 2 20 -1 42 -9 51 -11 13 -7 15 31 12 28 -2 45 -8 48 -18z m38 4 c0 -9 5 -19 12 -21 7 -3 12 4 12 16 0 14 6 21 18 21 18 0 18 -3 3 -50 -8 -27 -20 -50 -27 -50 -7 0 -19 21 -28 47 -19 56 -19 53 -2 53 8 0 13 -7 12 -16z m117 4 c-11 -18 -4 -50 15 -71 8 -9 13 -20 9 -23 -9 -9 -27 5 -27 22 0 8 -4 14 -10 14 -5 0 -10 -6 -10 -14 0 -14 -34 -28 -44 -19 -3 3 4 15 15 27 13 14 19 31 16 49 -3 23 0 27 20 27 17 0 22 -4 16 -12z"/>
 <path d="M1093 1283 c4 -3 10 -3 14 0 3 4 0 7 -7 7 -7 0 -10 -3 -7 -7z"/>
 <path d="M187 213 c-4 -3 -7 -21 -7 -40 0 -27 4 -33 20 -33 25 0 34 21 26 55 -6 24 -25 33 -39 18z"/>
 <path d="M387 213 c-4 -3 -7 -21 -7 -40 0 -37 23 -46 38 -15 16 30 -10 76 -31 55z"/>
 </g>
<g id="layer110" fill="#b28d4e" stroke="none">
 <path d="M0 1160 l0 -1160 1340 0 1340 0 0 1160 0 1160 -710 0 -710 0 0 -59 c0 -64 -17 -93 -39 -67 -7 8 -11 20 -10 28 1 7 1 32 0 56 l-1 42 -605 0 -605 0 0 -1160z m1217 943 c-4 -3 -7 0 -7 7 0 7 3 10 7 7 3 -4 3 -10 0 -14z m10 -40 c-4 -3 -7 0 -7 7 0 7 3 10 7 7 3 -4 3 -10 0 -14z m0 -30 c-4 -3 -7 0 -7 7 0 7 3 10 7 7 3 -4 3 -10 0 -14z m90 -559 c-3 -3 -12 -4 -19 -1 -8 3 -5 6 6 6 11 1 17 -2 13 -5z m-37 -14 c0 -5 6 -9 13 -7 7 1 11 -6 9 -17 -3 -14 1 -17 13 -13 9 4 24 2 34 -5 18 -11 24 -10 70 17 18 10 30 11 43 4 10 -6 28 -7 38 -4 32 10 60 -4 60 -30 0 -32 -35 -55 -85 -55 -30 -1 -36 -3 -24 -10 9 -5 30 -11 48 -12 38 -3 40 -13 4 -23 l-28 -7 23 -9 c13 -5 29 -6 35 -2 7 3 9 3 5 -1 -4 -5 2 -23 13 -42 l19 -35 -26 -9 c-14 -6 -29 -10 -34 -10 -5 0 -19 -18 -31 -40 -13 -22 -26 -40 -31 -40 -18 0 -7 -28 13 -33 15 -4 20 -11 16 -21 -4 -10 -1 -16 9 -16 40 0 51 -53 13 -65 -10 -4 -19 -14 -19 -24 0 -10 -7 -24 -15 -31 -9 -7 -13 -21 -10 -31 3 -9 1 -20 -5 -24 -5 -3 -10 -2 -10 3 0 5 -12 8 -27 6 -25 -2 -47 -21 -56 -48 -3 -8 -12 -8 -34 0 -32 12 -47 8 -49 -13 -3 -36 -5 -41 -20 -47 -9 -3 -24 4 -37 19 -28 32 -45 22 -56 -36 -7 -40 -9 -42 -15 -18 -4 14 -6 30 -4 35 2 5 -7 20 -19 33 l-23 24 -14 -34 c-8 -19 -28 -47 -45 -63 l-31 -30 0 25 c0 14 4 29 10 35 15 15 48 124 38 124 -6 0 -25 -15 -44 -34 -23 -23 -34 -29 -34 -18 0 8 7 23 15 32 8 9 18 31 21 48 6 29 4 32 -18 32 -24 0 -58 -13 -121 -45 l-29 -15 7 33 c4 17 13 39 21 48 16 18 19 33 4 24 -5 -3 -26 -3 -46 1 -35 6 -36 8 -19 20 12 9 31 12 50 8 26 -5 33 -2 43 20 11 24 9 26 -26 43 -20 9 -48 28 -61 42 -16 17 -48 32 -90 43 l-66 16 66 1 c76 1 195 34 223 61 18 17 17 19 -20 54 -21 20 -41 36 -45 36 -4 0 -9 6 -12 13 -3 8 8 12 38 11 24 -1 55 4 70 12 15 8 31 11 37 8 5 -3 19 -3 31 0 29 7 96 66 76 67 -8 0 -3 5 10 10 13 5 32 7 42 4 9 -3 20 -1 24 5 8 13 75 13 75 0z m57 -17 c-4 -3 -7 0 -7 7 0 7 3 10 7 7 3 -4 3 -10 0 -14z m-394 -670 c-7 -2 -19 -2 -25 0 -7 3 -2 5 12 5 14 0 19 -2 13 -5z m-803 -558 c15 -14 18 -14 30 0 15 18 54 20 67 3 35 -45 15 -91 -37 -86 -29 2 -37 8 -44 34 -18 62 -81 66 -74 5 2 -21 8 -26 31 -26 32 1 36 -11 7 -20 -29 -9 -70 20 -70 50 0 24 33 55 59 55 8 0 22 -7 31 -15z m198 -5 c5 -13 3 -13 -11 -2 -25 21 -39 4 -35 -39 3 -30 0 -39 -12 -39 -11 0 -15 12 -15 50 l0 51 34 -3 c20 -2 37 -9 39 -18z m90 4 c47 -33 8 -103 -48 -86 -22 6 -25 13 -26 55 0 44 1 47 26 47 14 0 36 -7 48 -16z m62 -29 c0 -26 5 -45 11 -45 7 0 9 10 5 25 -7 29 9 34 23 6 13 -24 -16 -53 -46 -45 -17 5 -22 15 -25 55 -2 41 0 49 15 49 14 0 17 -9 17 -45z m128 25 c5 -13 3 -13 -11 -2 -24 20 -39 5 -36 -39 2 -21 0 -39 -4 -39 -4 0 -11 0 -15 0 -4 0 -6 16 -4 35 2 20 -1 42 -9 51 -11 13 -7 15 31 12 28 -2 45 -8 48 -18z m38 4 c0 -9 5 -19 12 -21 7 -3 12 4 12 16 0 14 6 21 18 21 18 0 18 -3 3 -50 -8 -27 -20 -50 -27 -50 -7 0 -19 21 -28 47 -19 56 -19 53 -2 53 8 0 13 -7 12 -16z m117 4 c-11 -18 -4 -50 15 -71 8 -9 13 -20 9 -23 -9 -9 -27 5 -27 22 0 8 -4 14 -10 14 -5 0 -10 -6 -10 -14 0 -14 -34 -28 -44 -19 -3 3 4 15 15 27 13 14 19 31 16 49 -3 23 0 27 20 27 17 0 22 -4 16 -12z"/>
 <path d="M1373 1333 c9 -2 23 -2 30 0 6 3 -1 5 -18 5 -16 0 -22 -2 -12 -5z"/>
 <path d="M1430 1290 c-18 -12 -2 -12 25 0 13 6 15 9 5 9 -8 0 -22 -4 -30 -9z"/>
 <path d="M187 213 c-4 -3 -7 -21 -7 -40 0 -27 4 -33 20 -33 25 0 34 21 26 55 -6 24 -25 33 -39 18z"/>
 <path d="M387 213 c-4 -3 -7 -21 -7 -40 0 -37 23 -46 38 -15 16 30 -10 76 -31 55z"/>
 </g>
<g id="layer111" fill="#e47d37" stroke="none">
 <path d="M0 1160 l0 -1160 1340 0 1340 0 0 1160 0 1160 -710 0 -710 0 0 -59 c0 -64 -17 -93 -39 -67 -7 8 -11 20 -10 28 1 7 1 32 0 56 l-1 42 -605 0 -605 0 0 -1160z m1217 943 c-4 -3 -7 0 -7 7 0 7 3 10 7 7 3 -4 3 -10 0 -14z m10 -40 c-4 -3 -7 0 -7 7 0 7 3 10 7 7 3 -4 3 -10 0 -14z m0 -30 c-4 -3 -7 0 -7 7 0 7 3 10 7 7 3 -4 3 -10 0 -14z m90 -559 c-3 -3 -12 -4 -19 -1 -8 3 -5 6 6 6 11 1 17 -2 13 -5z m-37 -14 c0 -5 6 -9 13 -7 7 1 11 -6 9 -17 -3 -14 1 -17 13 -13 9 4 24 2 34 -5 18 -11 24 -10 70 17 18 10 30 11 43 4 10 -6 28 -7 38 -4 32 10 60 -4 60 -30 0 -32 -35 -55 -85 -55 -30 -1 -36 -3 -24 -10 9 -5 30 -11 48 -12 38 -3 40 -13 4 -23 l-28 -7 23 -9 c13 -5 29 -6 35 -2 7 3 9 3 5 -1 -4 -5 2 -23 13 -42 l19 -35 -26 -9 c-14 -6 -29 -10 -34 -10 -5 0 -19 -18 -31 -40 -13 -22 -26 -40 -31 -40 -18 0 -7 -28 13 -33 15 -4 20 -11 16 -21 -4 -10 -1 -16 9 -16 40 0 51 -53 13 -65 -10 -4 -19 -14 -19 -24 0 -10 -7 -24 -15 -31 -9 -7 -13 -21 -10 -31 3 -9 1 -20 -5 -24 -5 -3 -10 -2 -10 3 0 5 -12 8 -27 6 -25 -2 -47 -21 -56 -48 -3 -8 -12 -8 -34 0 -32 12 -47 8 -49 -13 -3 -36 -5 -41 -20 -47 -9 -3 -24 4 -37 19 -28 32 -45 22 -56 -36 -7 -40 -9 -42 -15 -18 -4 14 -6 30 -4 35 2 5 -7 20 -19 33 l-23 24 -14 -34 c-8 -19 -28 -47 -45 -63 l-31 -30 0 25 c0 14 4 29 10 35 15 15 48 124 38 124 -6 0 -25 -15 -44 -34 -23 -23 -34 -29 -34 -18 0 8 7 23 15 32 8 9 18 31 21 48 6 29 4 32 -18 32 -24 0 -58 -13 -121 -45 l-29 -15 7 33 c4 17 13 39 21 48 16 18 19 33 4 24 -5 -3 -26 -3 -46 1 -35 6 -36 8 -19 20 12 9 31 12 50 8 26 -5 33 -2 43 20 11 24 9 26 -26 43 -20 9 -48 28 -61 42 -16 17 -48 32 -90 43 l-66 16 66 1 c76 1 195 34 223 61 18 17 17 19 -20 54 -21 20 -41 36 -45 36 -4 0 -9 6 -12 13 -3 8 8 12 38 11 24 -1 55 4 70 12 15 8 31 11 37 8 5 -3 19 -3 31 0 29 7 96 66 76 67 -8 0 -3 5 10 10 13 5 32 7 42 4 9 -3 20 -1 24 5 8 13 75 13 75 0z m57 -17 c-4 -3 -7 0 -7 7 0 7 3 10 7 7 3 -4 3 -10 0 -14z m-394 -670 c-7 -2 -19 -2 -25 0 -7 3 -2 5 12 5 14 0 19 -2 13 -5z m-799 -558 c6 -18 -5 -20 -22 -3 -17 17 -44 -10 -40 -41 2 -21 8 -26 31 -26 32 1 36 -11 7 -20 -28 -9 -70 20 -70 47 0 12 7 30 17 40 20 22 69 24 77 3z m100 -7 c9 -12 16 -28 16 -35 0 -18 -37 -53 -55 -53 -21 0 -55 36 -55 59 0 48 67 68 94 29z m93 6 c2 -7 -6 -10 -23 -6 -27 5 -27 4 -22 -42 5 -38 3 -46 -11 -46 -13 0 -16 11 -16 55 l0 56 34 -3 c19 -2 36 -8 38 -14z m96 2 c42 -32 5 -96 -53 -93 -23 2 -25 6 -25 55 0 51 0 52 30 52 16 0 38 -7 48 -14z m57 -31 c0 -26 5 -45 11 -45 7 0 9 10 5 25 -8 30 9 33 24 6 12 -23 -14 -56 -37 -47 -8 3 -20 6 -26 6 -8 0 -12 19 -12 50 0 41 3 50 18 50 14 0 17 -9 17 -45z m128 27 c3 -9 -3 -11 -23 -6 -26 6 -27 6 -24 -35 2 -22 0 -41 -4 -41 -4 0 -11 0 -17 0 -5 0 -7 13 -4 29 3 16 1 38 -6 50 -11 21 -10 22 31 19 23 -2 44 -9 47 -16z m38 2 c0 -9 5 -19 12 -21 7 -3 12 4 12 16 0 15 6 21 21 21 16 0 19 -4 14 -17 -4 -10 -12 -31 -17 -48 -17 -48 -26 -51 -42 -14 -26 64 -28 79 -13 79 8 0 14 -7 13 -16z m116 -17 c-2 -22 2 -38 12 -46 20 -17 21 -31 1 -31 -8 0 -15 9 -15 20 0 11 -4 20 -10 20 -5 0 -10 -9 -10 -20 0 -21 -33 -29 -45 -10 -3 6 -2 10 3 10 14 0 33 50 27 71 -5 15 -1 19 17 19 21 0 24 -4 20 -33z"/>
 <path d="M1373 1333 c9 -2 23 -2 30 0 6 3 -1 5 -18 5 -16 0 -22 -2 -12 -5z"/>
 <path d="M1430 1290 c-18 -12 -2 -12 25 0 13 6 15 9 5 9 -8 0 -22 -4 -30 -9z"/>
 <path d="M191 211 c-7 -5 -11 -21 -9 -37 4 -39 42 -41 46 -3 3 29 -17 52 -37 40z"/>
 <path d="M386 213 c-3 -4 -6 -21 -6 -40 0 -36 22 -46 38 -17 16 29 -11 77 -32 57z"/>
 </g>
<g id="layer112" fill="#de9130" stroke="none">
 <path d="M0 1160 l0 -1160 1340 0 1340 0 0 1160 0 1160 -710 0 -709 0 -3 -220 c-2 -129 1 -220 6 -220 5 0 7 -2 4 -5 -3 -3 -18 0 -32 7 -22 9 -26 17 -21 35 3 13 2 109 -1 213 l-7 190 -604 0 -603 0 0 -1160z m1260 625 c0 -33 -3 -45 -9 -36 -7 11 -10 10 -14 -5 -2 -10 -5 14 -6 55 -1 68 0 73 14 55 8 -11 14 -41 15 -69z m20 -209 c0 -8 3 -16 8 -18 4 -1 15 -16 24 -33 20 -37 78 -72 88 -55 5 9 13 9 27 1 11 -5 23 -7 27 -4 3 3 30 7 59 8 50 1 53 0 49 -21 -2 -12 1 -25 7 -28 15 -10 14 -63 -1 -69 -10 -3 -10 -9 0 -26 6 -11 12 -28 12 -36 0 -8 4 -15 9 -15 5 0 13 -10 17 -22 3 -12 16 -30 28 -39 l21 -17 -27 -7 c-16 -4 -25 -11 -22 -16 3 -5 2 -9 -3 -8 -26 4 -44 -4 -63 -31 -19 -26 -20 -35 -10 -65 6 -19 22 -43 36 -54 17 -13 21 -21 12 -25 -10 -5 -10 -7 0 -12 6 -3 12 -12 12 -19 0 -11 -6 -12 -30 -3 -26 8 -34 7 -51 -8 -11 -10 -17 -24 -15 -31 3 -8 -1 -16 -9 -19 -9 -4 -15 -19 -15 -41 0 -31 -2 -34 -22 -28 -13 4 -31 9 -41 12 -18 5 -57 -29 -57 -50 0 -6 -10 -1 -23 11 -28 26 -49 28 -46 5 1 -10 -2 -43 -6 -73 l-8 -55 -16 35 c-23 51 -44 80 -58 80 -11 0 -15 -12 -29 -95 -6 -32 -9 -36 -15 -20 -4 11 -8 40 -8 64 -1 34 -4 42 -16 37 -9 -3 -15 0 -15 10 0 8 -4 12 -10 9 -5 -3 -10 -14 -10 -23 0 -17 -67 -92 -83 -92 -12 0 0 50 24 96 10 21 19 49 19 63 l0 25 -30 -29 c-16 -16 -32 -36 -35 -46 -7 -20 -62 -42 -79 -31 -6 4 4 9 23 12 29 4 36 10 43 36 4 18 14 44 22 59 32 61 -6 68 -108 20 -50 -23 -85 -34 -60 -17 7 4 20 25 30 47 10 22 20 43 22 48 2 4 -15 7 -37 7 -45 0 -52 11 -20 34 17 11 27 12 45 4 28 -13 33 -10 36 21 2 17 -7 28 -42 47 -25 14 -50 32 -56 40 -7 8 -46 23 -88 33 -97 23 -110 35 -28 26 85 -10 212 24 225 59 6 15 -62 96 -81 96 -7 0 -12 5 -12 11 0 5 -4 8 -9 5 -4 -3 -16 3 -26 14 -17 18 -16 18 41 5 33 -8 65 -10 73 -5 8 4 25 4 38 -1 21 -8 22 -6 13 17 -6 14 -10 26 -10 27 0 1 23 0 51 -2 l51 -3 -4 46 -5 46 41 -2 c38 -3 42 -1 51 30 11 37 27 40 55 12 29 -29 47 -25 61 15 13 34 39 49 39 21z m-263 -73 c-4 -3 -7 0 -7 7 0 7 3 10 7 7 3 -4 3 -10 0 -14z m-257 -106 c0 -11 -39 16 -45 31 -3 8 4 6 20 -5 13 -10 25 -21 25 -26z m850 -457 c0 -5 -5 -10 -11 -10 -5 0 -7 5 -4 10 3 6 8 10 11 10 2 0 4 -4 4 -10z m-236 -216 c4 -10 1 -14 -6 -12 -15 5 -23 28 -10 28 5 0 13 -7 16 -16z m-1230 -509 c6 -18 -5 -20 -22 -3 -17 17 -44 -10 -40 -41 2 -21 8 -26 31 -26 32 1 36 -11 7 -20 -28 -9 -70 20 -70 47 0 12 7 30 17 40 20 22 69 24 77 3z m100 -7 c9 -12 16 -28 16 -35 0 -18 -37 -53 -55 -53 -21 0 -55 36 -55 59 0 48 67 68 94 29z m93 6 c2 -7 -6 -10 -23 -6 -27 5 -27 4 -22 -42 5 -38 3 -46 -11 -46 -13 0 -16 11 -16 55 l0 56 34 -3 c19 -2 36 -8 38 -14z m96 2 c42 -32 5 -96 -53 -93 -23 2 -25 6 -25 55 0 51 0 52 30 52 16 0 38 -7 48 -14z m57 -31 c0 -26 5 -45 11 -45 7 0 9 10 5 25 -8 30 9 33 24 6 12 -23 -14 -56 -37 -47 -8 3 -20 6 -26 6 -8 0 -12 19 -12 50 0 41 3 50 18 50 14 0 17 -9 17 -45z m128 27 c3 -9 -3 -11 -23 -6 -26 6 -27 6 -24 -35 2 -22 0 -41 -4 -41 -4 0 -11 0 -17 0 -5 0 -7 13 -4 29 3 16 1 38 -6 50 -11 21 -10 22 31 19 23 -2 44 -9 47 -16z m38 2 c0 -9 5 -19 12 -21 7 -3 12 4 12 16 0 15 6 21 21 21 16 0 19 -4 14 -17 -4 -10 -12 -31 -17 -48 -17 -48 -26 -51 -42 -14 -26 64 -28 79 -13 79 8 0 14 -7 13 -16z m116 -17 c-2 -22 2 -38 12 -46 20 -17 21 -31 1 -31 -8 0 -15 9 -15 20 0 11 -4 20 -10 20 -5 0 -10 -9 -10 -20 0 -21 -33 -29 -45 -10 -3 6 -2 10 3 10 14 0 33 50 27 71 -5 15 -1 19 17 19 21 0 24 -4 20 -33z"/>
 <path d="M191 211 c-7 -5 -11 -21 -9 -37 4 -39 42 -41 46 -3 3 29 -17 52 -37 40z"/>
 <path d="M386 213 c-3 -4 -6 -21 -6 -40 0 -36 22 -46 38 -17 16 29 -11 77 -32 57z"/>
 </g>
<g id="layer113" fill="#f1973e" stroke="none">
 <path d="M0 1160 l0 -1160 1340 0 1340 0 0 1160 0 1160 -710 0 -709 0 -3 -220 c-2 -129 1 -220 6 -220 5 0 7 -2 4 -5 -3 -3 -16 -1 -29 3 -22 8 -24 15 -24 68 0 33 -1 130 -3 217 l-2 157 -605 0 -605 0 0 -1160z m1263 655 c4 -11 3 -33 -2 -50 -5 -16 -10 -23 -11 -15 -1 11 -4 9 -10 -5 -6 -14 -9 4 -9 55 -1 66 1 72 13 55 7 -11 16 -29 19 -40z m17 -239 c0 -8 3 -16 8 -18 4 -1 15 -16 24 -33 20 -37 78 -72 88 -55 5 9 13 9 27 1 11 -5 23 -7 27 -4 3 3 30 7 59 8 50 1 53 0 49 -21 -2 -12 1 -25 7 -28 15 -10 14 -63 -1 -69 -10 -3 -10 -9 0 -26 6 -11 12 -28 12 -36 0 -8 4 -15 9 -15 5 0 13 -10 17 -22 3 -12 16 -30 28 -39 l21 -17 -27 -7 c-16 -4 -25 -11 -22 -16 3 -5 2 -9 -3 -8 -26 4 -44 -4 -63 -31 -19 -27 -20 -34 -10 -65 7 -20 23 -43 36 -52 20 -12 22 -18 12 -25 -10 -8 -10 -11 0 -15 19 -8 14 -29 -8 -29 -11 0 -20 4 -20 8 0 4 -6 8 -13 8 -19 0 -50 -36 -43 -49 4 -5 -1 -14 -10 -19 -12 -7 -15 -18 -12 -41 5 -35 6 -35 -45 -20 -40 11 -56 3 -70 -35 -7 -18 -8 -18 -30 3 -36 33 -46 27 -43 -30 2 -29 0 -45 -5 -37 -6 8 -9 -1 -9 -25 0 -23 -4 -36 -10 -32 -5 3 -10 15 -10 26 0 24 -41 89 -57 89 -11 0 -14 -9 -29 -95 -5 -33 -8 -37 -14 -20 -5 11 -9 40 -9 64 -1 34 -4 42 -16 37 -9 -3 -15 0 -15 10 0 8 -4 12 -10 9 -5 -3 -10 -14 -10 -23 0 -17 -67 -92 -83 -92 -12 0 0 50 24 96 10 21 19 49 19 63 0 24 0 24 -21 5 -12 -10 -32 -35 -44 -54 -18 -29 -29 -36 -51 -34 -42 2 -43 6 -5 13 28 5 36 12 43 37 4 18 15 44 23 60 12 25 13 31 1 43 -9 9 -21 11 -33 6 -10 -4 -27 -10 -38 -12 -10 -2 -22 -7 -25 -12 -3 -4 -20 -13 -39 -19 -39 -14 -51 -15 -35 -4 11 7 44 76 44 93 0 4 -21 9 -47 11 l-48 3 38 24 c29 17 41 21 50 12 18 -18 37 -13 37 11 0 24 -26 58 -45 58 -7 0 -25 12 -40 26 -19 18 -55 33 -109 45 -44 11 -82 22 -85 25 -3 2 28 3 69 0 95 -6 210 24 223 57 6 16 -62 97 -81 97 -7 0 -12 5 -12 10 0 6 -3 9 -7 8 -13 -2 -43 13 -43 22 0 5 26 2 57 -5 32 -7 64 -10 72 -6 7 5 22 6 32 4 13 -4 19 0 19 11 0 10 -4 14 -10 11 -5 -3 -7 0 -4 8 4 10 18 13 55 9 l50 -5 -5 51 -5 50 35 -11 c32 -10 38 -9 50 8 8 10 14 27 14 37 0 24 25 23 50 -2 29 -29 47 -25 61 15 13 34 39 49 39 21z m-263 -73 c-4 -3 -7 0 -7 7 0 7 3 10 7 7 3 -4 3 -10 0 -14z m-258 -100 c2 -2 2 -5 -1 -8 -5 -6 -78 62 -78 72 0 4 17 -9 37 -28 21 -18 40 -35 42 -36z m81 -333 c0 -5 -7 -7 -15 -4 -8 4 -15 8 -15 10 0 2 7 4 15 4 8 0 15 -4 15 -10z m770 -130 c0 -5 -5 -10 -11 -10 -5 0 -7 5 -4 10 3 6 8 10 11 10 2 0 4 -4 4 -10z m-236 -229 c-9 -10 -26 18 -18 30 5 9 9 8 14 -7 4 -10 6 -21 4 -23z m-1231 -495 c9 -22 -5 -28 -18 -9 -11 15 -15 15 -29 3 -22 -18 -17 -64 8 -68 10 -2 22 2 27 10 7 10 9 9 9 -4 0 -25 -37 -32 -65 -14 -29 19 -32 51 -8 78 19 21 69 24 76 4z m99 -2 c10 -10 18 -25 18 -36 0 -22 -34 -58 -55 -58 -28 0 -55 38 -52 72 2 30 5 33 36 36 21 1 41 -4 53 -14z m95 0 c2 -7 -6 -10 -21 -7 -25 5 -25 4 -22 -41 3 -37 0 -46 -13 -46 -13 0 -16 11 -16 55 l0 56 34 -3 c19 -2 36 -8 38 -14z m96 2 c25 -19 22 -63 -5 -80 -20 -12 -42 -14 -80 -7 -4 0 -4 11 0 24 5 12 7 34 6 50 -3 24 0 27 29 27 18 0 40 -7 50 -14z m70 7 c-16 -6 -17 -83 -2 -83 7 0 9 10 5 25 -7 27 3 32 22 13 18 -18 27 -1 14 27 l-11 25 63 -1 c50 -1 63 -4 62 -16 0 -9 5 -18 12 -20 9 -3 12 2 10 13 -2 14 4 20 21 22 20 3 23 1 16 -15 -4 -10 -12 -31 -17 -48 -21 -60 -26 -57 -63 40 -5 13 -9 15 -12 8 -3 -8 -14 -11 -30 -7 -24 6 -25 5 -22 -37 l4 -44 -40 1 c-85 2 -80 -1 -80 54 0 49 1 50 30 49 17 0 24 -3 18 -6z m269 -18 c-2 -14 3 -36 12 -50 20 -30 20 -35 2 -35 -7 0 -17 10 -21 23 l-8 22 -4 -22 c-5 -24 -36 -32 -48 -13 -3 6 -2 10 3 10 14 0 33 50 27 71 -5 15 -1 19 18 19 20 0 23 -4 19 -25z m-557 -105 c3 -5 4 -10 1 -10 -3 0 -8 5 -11 10 -3 6 -4 10 -1 10 3 0 8 -4 11 -10z"/>
 <path d="M191 211 c-7 -5 -11 -21 -9 -37 4 -39 42 -41 46 -3 3 29 -17 52 -37 40z"/>
 <path d="M386 213 c-3 -4 -6 -21 -6 -40 0 -36 22 -46 38 -17 16 29 -11 77 -32 57z"/>
 <path d="M530 140 c0 -7 3 -10 7 -7 3 4 3 10 0 14 -4 3 -7 0 -7 -7z"/>
 </g>
<g id="layer114" fill="#d59c55" stroke="none">
 <path d="M5 1328 c2 -546 6 -1002 8 -1013 3 -11 0 -26 -6 -32 -7 -10 -4 -13 9 -13 15 0 16 -2 5 -9 -9 -6 -12 -23 -10 -55 2 -25 0 -48 -6 -50 -5 -3 -4 -5 3 -5 6 -1 12 -6 12 -12 0 -5 -3 -8 -7 -6 -5 3 -9 -26 -11 -64 l-3 -69 1340 0 1341 0 0 473 c-1 306 -4 466 -10 456 -5 -9 -11 -25 -13 -35 -2 -11 -7 -27 -12 -37 -4 -9 -5 -34 -2 -55 3 -20 3 -29 1 -19 -8 25 -24 21 -24 -7 0 -16 -7 -27 -20 -31 -11 -3 -20 -11 -20 -16 0 -5 -4 -9 -10 -9 -5 0 -10 25 -10 55 0 41 -4 55 -15 55 -23 0 -32 28 -27 81 4 47 4 49 -21 49 -24 0 -26 3 -21 29 5 22 0 34 -20 54 -25 25 -35 49 -18 45 15 -3 42 15 42 29 0 11 7 13 32 7 29 -6 31 -5 19 10 -10 12 -11 19 -2 29 8 11 5 19 -15 36 -28 24 -27 44 2 50 32 6 44 22 44 60 1 31 2 33 11 17 10 -17 13 -15 29 20 l17 39 7 -53 c5 -28 11 -50 14 -48 4 2 6 -31 6 -75 -1 -43 2 -79 5 -79 3 0 7 -30 9 -66 2 -36 7 -76 12 -88 5 -12 9 266 9 662 l1 682 -704 0 -703 0 -5 -100 c-7 -152 2 -300 18 -300 18 0 18 -15 -2 -45 -11 -18 -15 -41 -12 -87 2 -35 6 -70 9 -78 3 -8 4 -12 2 -7 -9 14 -23 7 -23 -13 0 -11 -4 -20 -10 -20 -5 0 -10 -4 -10 -10 0 -5 7 -10 15 -10 9 0 20 -12 25 -26 6 -16 14 -23 22 -18 7 4 10 4 6 -1 -4 -4 2 -21 13 -36 11 -16 17 -33 14 -39 -3 -5 -1 -10 6 -10 7 0 20 -7 30 -16 20 -18 90 -21 157 -6 23 6 39 6 36 1 -3 -5 -1 -9 5 -9 5 0 9 -12 8 -27 -2 -29 0 -30 57 -17 21 5 27 4 22 -5 -4 -6 -12 -8 -18 -5 -7 4 -8 2 -4 -4 3 -6 -3 -16 -14 -22 -11 -6 -20 -19 -20 -30 0 -10 -5 -20 -12 -22 -16 -6 -2 -39 14 -34 7 1 10 1 6 -1 -16 -9 -7 -31 27 -66 20 -21 42 -37 50 -37 8 0 19 -10 26 -21 10 -20 9 -21 -14 -17 -16 3 -28 0 -31 -8 -3 -7 -13 -10 -23 -8 -11 3 -33 -7 -54 -23 -30 -23 -36 -34 -35 -63 1 -29 7 -38 32 -50 17 -9 29 -21 27 -26 -2 -6 3 -17 12 -24 18 -15 20 -37 3 -43 -10 -3 -10 -7 0 -20 12 -14 11 -15 -12 -4 -14 7 -26 16 -26 20 0 5 -5 5 -10 2 -6 -4 -16 -3 -23 2 -7 5 -21 9 -32 9 -15 -1 -20 -7 -18 -29 1 -18 -3 -27 -13 -27 -11 0 -13 -12 -12 -50 2 -27 6 -50 11 -50 4 0 7 -6 7 -12 -1 -7 -11 0 -24 15 -12 16 -29 29 -37 30 -8 2 -20 6 -27 11 -7 4 -19 3 -26 -3 -16 -13 -29 -54 -15 -45 5 3 9 -7 9 -23 0 -15 3 -38 6 -51 9 -33 -18 -28 -39 7 -9 15 -14 31 -10 34 10 10 -18 67 -33 67 -12 0 -14 -40 -3 -96 4 -22 -2 -26 -14 -11 -10 15 -12 11 -9 -28 2 -25 0 -45 -5 -45 -12 0 -33 44 -33 67 0 26 -34 93 -45 89 -5 -1 -11 -16 -12 -32 -4 -50 -26 -124 -37 -124 -7 0 -12 25 -13 62 -1 35 -6 64 -12 66 -6 2 -11 10 -11 18 0 8 -5 14 -11 14 -5 0 -9 -8 -7 -18 3 -17 -69 -102 -85 -102 -15 0 -6 61 13 92 21 35 27 78 10 78 -6 0 -19 -15 -30 -32 -30 -52 -38 -58 -76 -58 -43 0 -42 23 2 30 16 3 30 11 32 18 1 7 10 25 19 39 23 34 25 53 8 69 -11 12 -16 12 -28 -1 -8 -8 -17 -12 -20 -9 -5 6 -56 -19 -87 -42 -40 -29 -67 -22 -36 9 21 21 58 88 52 95 -3 2 -24 5 -46 5 -45 0 -50 10 -17 38 24 20 62 25 72 9 11 -17 25 -11 25 12 0 27 -28 58 -46 51 -8 -3 -14 0 -14 6 0 6 -7 11 -15 11 -8 0 -19 8 -24 19 -6 10 -23 21 -38 24 -72 14 -155 35 -160 41 -13 13 5 14 87 7 47 -4 92 -4 100 0 8 5 32 16 53 25 28 12 37 22 37 41 0 13 -4 21 -10 18 -5 -3 -18 7 -28 23 -9 17 -44 52 -77 78 -61 50 -94 83 -95 97 0 14 15 7 45 -21 69 -63 86 -72 141 -72 29 0 56 4 59 10 3 5 -5 22 -19 37 -27 29 -36 54 -12 34 8 -7 35 -13 60 -14 25 -1 46 -6 46 -11 0 -5 6 -3 13 3 8 6 17 8 21 4 4 -4 0 6 -8 22 -9 17 -16 36 -16 43 0 7 -5 10 -10 7 -6 -4 -13 7 -16 24 -4 17 -9 29 -13 28 -9 -2 -81 47 -81 56 0 12 60 -23 67 -38 3 -8 9 -13 13 -10 5 3 15 -2 24 -10 8 -8 29 -18 45 -21 17 -4 28 -10 25 -15 -3 -5 2 -9 10 -9 9 0 13 6 10 14 -3 9 1 13 13 13 14 -2 17 5 16 33 -1 19 0 28 3 19 3 -11 12 -15 24 -12 11 3 17 9 14 14 -3 5 0 9 5 9 6 0 11 -4 11 -9 0 -5 10 -13 21 -16 15 -5 18 -9 9 -15 -9 -5 -9 -9 -1 -14 7 -5 17 5 24 23 7 17 16 29 18 27 8 -9 -8 247 -18 274 -3 8 -6 62 -7 120 -1 58 -3 153 -4 213 l-2 107 -600 0 -600 0 5 -992z m1100 432 c3 -5 4 -10 1 -10 -3 0 -8 5 -11 10 -3 6 -4 10 -1 10 3 0 8 -4 11 -10z m15 -52 c0 -5 -4 -8 -10 -8 -5 0 -10 10 -10 23 0 18 2 19 10 7 5 -8 10 -18 10 -22z m-13 -50 c-3 -8 -6 -5 -6 6 -1 11 2 17 5 13 3 -3 4 -12 1 -19z m200 -20 c-3 -8 -6 -5 -6 6 -1 11 2 17 5 13 3 -3 4 -12 1 -19z m468 -95 c-19 -29 -75 -82 -87 -83 -22 -1 -2 32 43 75 54 50 73 54 44 8z m-778 -70 c-4 -3 -7 0 -7 7 0 7 3 10 7 7 3 -4 3 -10 0 -14z m1513 -298 c0 -2 -9 -9 -20 -15 -16 -9 -18 -8 -14 5 5 13 34 22 34 10z m-1637 -109 c9 5 9 4 1 -5 -13 -14 -64 2 -64 20 0 7 9 5 25 -5 14 -9 31 -14 38 -10z m784 -133 c-4 -3 -7 0 -7 7 0 7 3 10 7 7 3 -4 3 -10 0 -14z m29 -65 c56 -44 67 -61 24 -38 -24 13 -72 60 -61 60 5 0 21 -10 37 -22z m-131 -18 c3 -5 4 -10 1 -10 -3 0 -8 5 -11 10 -3 6 -4 10 -1 10 3 0 8 -4 11 -10z m1050 -369 c3 -5 1 -12 -5 -16 -5 -3 -10 1 -10 9 0 18 6 21 15 7z m-2355 -85 c0 -3 -5 -8 -12 -12 -7 -4 -8 -3 -4 4 7 12 16 16 16 8z m177 -16 c-6 -8 -12 -16 -13 -18 -1 -1 -4 5 -6 15 -4 13 0 19 13 19 14 0 16 -3 6 -16z m143 16 c0 -3 -5 -8 -12 -12 -7 -4 -8 -3 -4 4 7 12 16 16 16 8z m-83 -13 c-4 -3 -10 -3 -14 0 -3 4 0 7 7 7 7 0 10 -3 7 -7z m-220 -10 c-4 -3 -10 -3 -14 0 -3 4 0 7 7 7 7 0 10 -3 7 -7z m180 -20 c-4 -3 -7 0 -7 7 0 7 3 10 7 7 3 -4 3 -10 0 -14z m84 -15 c8 -15 8 -18 0 -14 -6 4 -16 16 -22 28 -8 15 -8 18 0 14 6 -4 16 -16 22 -28z m-334 15 c-4 -3 -10 -3 -14 0 -3 4 0 7 7 7 7 0 10 -3 7 -7z m50 0 c-4 -3 -10 -3 -14 0 -3 4 0 7 7 7 7 0 10 -3 7 -7z m90 0 c-4 -3 -10 -3 -14 0 -3 4 0 7 7 7 7 0 10 -3 7 -7z m40 0 c-4 -3 -10 -3 -14 0 -3 4 0 7 7 7 7 0 10 -3 7 -7z m180 -10 c-4 -3 -7 0 -7 7 0 7 3 10 7 7 3 -4 3 -10 0 -14z m-80 -20 c-4 -3 -10 -3 -14 0 -3 4 0 7 7 7 7 0 10 -3 7 -7z m-172 -23 c3 -5 1 -10 -4 -10 -6 0 -11 5 -11 10 0 6 2 10 4 10 3 0 8 -4 11 -10z m82 -32 c-3 -8 -6 -5 -6 6 -1 11 2 17 5 13 3 -3 4 -12 1 -19z m113 18 c0 -3 -5 -8 -12 -12 -7 -4 -8 -3 -4 4 7 12 16 16 16 8z m-330 -10 c0 -3 -5 -8 -12 -12 -7 -4 -8 -3 -4 4 7 12 16 16 16 8z m127 -13 c-4 -3 -7 0 -7 7 0 7 3 10 7 7 3 -4 3 -10 0 -14z m40 0 c-4 -3 -7 0 -7 7 0 7 3 10 7 7 3 -4 3 -10 0 -14z m-100 -27 c-3 -8 0 -20 8 -26 8 -6 16 -21 18 -33 4 -18 5 -17 6 6 0 15 -4 27 -10 27 -5 0 -7 5 -4 10 3 6 22 10 42 10 26 0 36 -5 40 -20 3 -11 9 -17 14 -15 4 3 6 12 2 20 -7 20 54 20 80 1 43 -33 4 -98 -55 -92 -16 2 -28 -1 -28 -7 0 -6 -3 -8 -6 -4 -4 3 -2 20 4 36 7 19 7 31 1 32 -5 1 -13 2 -18 3 -5 0 -13 5 -18 10 -5 5 -3 6 5 2 6 -4 12 -2 12 3 0 6 -8 11 -18 11 -14 0 -18 -8 -18 -32 0 -18 4 -36 9 -39 17 -12 -2 -26 -28 -21 -25 4 -36 22 -13 22 6 0 9 3 5 6 -3 3 -15 0 -26 -8 -12 -8 -18 -17 -15 -21 3 -3 -10 -1 -30 5 -29 9 -37 17 -42 45 -4 19 -9 32 -12 29 -3 -3 -11 2 -17 11 -11 15 -15 15 -29 3 -22 -18 -17 -64 8 -68 10 -2 22 2 27 10 7 10 9 9 9 -4 0 -25 -37 -32 -65 -14 -29 19 -32 51 -8 78 17 19 73 25 73 8 0 -5 5 -10 11 -10 5 0 8 3 6 8 -3 4 11 8 31 10 21 1 39 7 40 12 2 6 6 10 9 10 3 0 3 -6 0 -14z m90 7 c-4 -3 -10 -3 -14 0 -3 4 0 7 7 7 7 0 10 -3 7 -7z m123 3 c0 -3 -5 -8 -12 -12 -7 -4 -8 -3 -4 4 7 12 16 16 16 8z m57 -3 c-4 -3 -2 -12 5 -20 6 -7 8 -16 4 -20 -3 -3 -6 -1 -6 5 0 7 -5 12 -10 12 -6 0 -10 -17 -8 -40 1 -22 6 -40 11 -40 5 0 6 11 3 25 -7 27 3 32 22 13 21 -21 27 2 10 33 -10 17 -13 27 -8 24 5 -3 35 -6 68 -6 47 -1 59 -4 58 -16 0 -9 5 -18 12 -20 9 -3 11 3 8 19 -3 20 0 23 28 21 17 -1 41 -2 52 -2 17 -1 20 -6 16 -26 -2 -14 3 -36 12 -50 20 -31 20 -32 -3 -38 -14 -3 -17 0 -14 13 3 10 0 21 -6 24 -7 4 -11 -1 -11 -12 0 -14 -8 -21 -29 -24 -21 -3 -28 -1 -24 9 3 7 9 13 13 13 14 0 31 63 21 73 -7 7 -13 1 -19 -14 -35 -89 -32 -86 -49 -64 -8 11 -18 19 -23 18 -5 -2 -7 9 -4 23 6 33 -3 47 -20 31 -8 -6 -11 -16 -8 -21 3 -5 0 -6 -7 -2 -6 4 -9 12 -6 17 4 5 0 9 -7 9 -9 0 -15 -13 -16 -35 -2 -19 2 -35 8 -35 5 0 10 -4 10 -9 0 -5 -8 -8 -17 -6 -10 1 -27 -2 -38 -8 -16 -8 -18 -7 -7 4 6 7 12 18 12 23 0 6 -4 5 -9 -3 -5 -8 -26 -15 -49 -15 -31 -1 -38 2 -30 11 5 7 8 32 6 55 -2 36 0 43 14 40 9 -1 19 2 23 8 3 5 9 10 12 10 4 0 3 -3 0 -7z m-470 -70 c-4 -3 -7 0 -7 7 0 7 3 10 7 7 3 -4 3 -10 0 -14z m88 7 c3 -5 1 -10 -4 -10 -6 0 -11 5 -11 10 0 6 2 10 4 10 3 0 8 -4 11 -10z m470 -10 c3 -5 4 -10 1 -10 -3 0 -8 5 -11 10 -3 6 -4 10 -1 10 3 0 8 -4 11 -10z m-258 -17 c-4 -3 -7 0 -7 7 0 7 3 10 7 7 3 -4 3 -10 0 -14z m280 -10 c-4 -3 -7 0 -7 7 0 7 3 10 7 7 3 -4 3 -10 0 -14z m-596 -46 c-10 -9 -11 -8 -5 6 3 10 9 15 12 12 3 -3 0 -11 -7 -18z m299 8 c-7 -8 -17 -15 -23 -15 -6 0 -2 7 9 15 25 19 30 19 14 0z m345 5 c3 -6 -1 -7 -9 -4 -18 7 -21 14 -7 14 6 0 13 -4 16 -10z m-444 -17 c13 -17 13 -17 -6 -3 -11 8 -22 16 -24 17 -2 2 0 3 6 3 6 0 17 -8 24 -17z m196 10 c-4 -3 -10 -3 -14 0 -3 4 0 7 7 7 7 0 10 -3 7 -7z m90 0 c-4 -3 -10 -3 -14 0 -3 4 0 7 7 7 7 0 10 -3 7 -7z m66 0 c-7 -2 -19 -2 -25 0 -7 3 -2 5 12 5 14 0 19 -2 13 -5z m210 -8 c-3 -9 -8 -14 -10 -11 -3 3 -2 9 2 15 9 16 15 13 8 -4z m-638 -5 c3 -5 4 -10 1 -10 -3 0 -8 5 -11 10 -3 6 -4 10 -1 10 3 0 8 -4 11 -10z m605 6 c0 -3 -5 -8 -12 -12 -7 -4 -8 -3 -4 4 7 12 16 16 16 8z"/>
 <path d="M191 211 c-7 -5 -11 -21 -9 -37 4 -35 41 -42 46 -9 3 19 2 19 -11 2 -13 -16 -15 -16 -21 -2 -4 10 -2 14 5 9 8 -4 9 1 4 17 -5 18 -4 20 4 9 5 -8 13 -12 16 -9 10 11 -20 28 -34 20z"/>
 <path d="M386 213 c-3 -4 -6 -21 -6 -40 0 -36 22 -46 38 -17 16 29 -11 77 -32 57z m21 -43 c-1 -11 -5 -20 -9 -20 -10 0 -10 4 -2 24 8 22 13 20 11 -4z"/>
 <path d="M2570 1270 c0 -5 5 -10 10 -10 6 0 10 5 10 10 0 6 -4 10 -10 10 -5 0 -10 -4 -10 -10z"/>
 </g>
<g id="layer115" fill="#f9a943" stroke="none">
 <path d="M5 1328 c2 -546 6 -1002 8 -1013 3 -11 0 -26 -6 -32 -7 -10 -4 -13 9 -13 15 0 16 -2 5 -9 -10 -7 -12 -24 -8 -70 2 -33 2 -59 -2 -57 -3 2 -7 -27 -9 -65 l-3 -69 1340 0 1341 0 0 473 c-1 306 -4 466 -10 456 -5 -9 -11 -25 -13 -35 -2 -11 -7 -27 -12 -37 -4 -9 -5 -34 -2 -55 3 -20 3 -29 1 -19 -8 25 -24 21 -24 -7 0 -16 -7 -27 -20 -31 -11 -3 -20 -11 -20 -16 0 -5 -4 -9 -10 -9 -5 0 -10 25 -10 55 0 41 -4 55 -15 55 -23 0 -32 28 -27 81 4 47 4 49 -21 49 -24 0 -26 3 -21 29 5 22 0 34 -20 54 -25 25 -35 49 -18 45 15 -3 42 15 42 29 0 11 7 13 32 7 29 -6 31 -5 19 10 -10 12 -11 19 -2 29 8 11 5 19 -15 36 -28 24 -27 44 2 50 32 6 44 22 44 60 1 31 2 33 11 17 10 -17 13 -15 29 20 l17 39 7 -53 c5 -28 11 -50 14 -48 4 2 6 -31 6 -75 -1 -43 2 -79 5 -79 3 0 7 -30 9 -66 2 -36 7 -76 12 -88 5 -12 9 266 9 662 l1 682 -704 0 -703 0 -5 -100 c-7 -152 2 -300 18 -300 18 0 18 -15 -2 -45 -11 -18 -15 -41 -12 -87 2 -35 6 -70 9 -78 3 -8 4 -12 2 -7 -9 14 -23 7 -23 -13 0 -11 -4 -20 -10 -20 -5 0 -10 -4 -10 -10 0 -5 7 -10 15 -10 9 0 20 -12 25 -26 6 -16 14 -23 22 -18 7 4 10 4 6 -1 -4 -4 2 -21 13 -36 11 -16 17 -33 14 -39 -3 -5 -1 -10 6 -10 7 0 20 -7 30 -16 20 -18 90 -21 157 -6 23 6 39 6 36 1 -3 -5 -1 -9 5 -9 5 0 9 -12 8 -27 -2 -29 0 -30 57 -17 21 5 27 4 22 -5 -4 -6 -12 -8 -18 -5 -7 4 -8 2 -4 -4 3 -6 -3 -16 -14 -22 -11 -6 -20 -19 -20 -30 0 -10 -5 -20 -12 -22 -16 -6 -2 -39 14 -34 7 1 10 1 6 -1 -16 -9 -7 -31 27 -66 20 -21 42 -37 50 -37 8 0 19 -10 26 -21 10 -20 9 -21 -14 -17 -16 3 -28 0 -31 -8 -3 -7 -13 -10 -23 -8 -11 3 -33 -7 -54 -23 -30 -23 -36 -34 -35 -63 1 -29 7 -38 32 -50 17 -9 29 -21 27 -26 -2 -6 3 -17 12 -24 18 -15 20 -37 3 -43 -10 -3 -10 -7 0 -20 12 -14 11 -15 -12 -4 -14 7 -26 16 -26 20 0 5 -5 5 -10 2 -6 -4 -16 -3 -23 2 -7 5 -21 9 -32 9 -15 -1 -20 -7 -18 -29 1 -18 -3 -27 -13 -27 -11 0 -13 -12 -12 -50 2 -27 6 -50 11 -50 4 0 7 -6 7 -12 -1 -7 -11 0 -24 15 -12 16 -29 29 -37 30 -8 2 -20 6 -27 11 -7 4 -19 3 -26 -3 -16 -13 -29 -54 -15 -45 5 3 9 -7 9 -23 0 -15 3 -38 6 -51 4 -15 2 -22 -8 -22 -17 0 -47 50 -41 68 6 15 -23 62 -37 62 -8 0 -7 -52 1 -96 4 -22 -2 -26 -14 -11 -10 15 -12 11 -9 -28 2 -25 0 -45 -5 -45 -12 0 -33 45 -33 70 0 26 -40 91 -51 84 -5 -3 -9 -17 -9 -32 2 -40 -22 -122 -34 -122 -7 0 -12 25 -13 62 -1 35 -6 64 -12 66 -6 2 -11 10 -11 18 0 8 -5 14 -11 14 -5 0 -9 -8 -7 -18 3 -17 -69 -102 -85 -102 -15 0 -6 61 13 92 21 34 27 78 11 78 -5 0 -20 -17 -32 -38 -29 -47 -36 -52 -77 -52 -44 0 -38 23 9 31 19 4 31 7 26 8 -4 0 4 24 18 51 21 42 23 53 13 64 -17 16 -38 9 -38 -12 0 -14 -2 -14 -9 -3 -7 11 -14 10 -42 -5 -19 -10 -41 -24 -49 -30 -21 -16 -50 -25 -50 -16 0 4 10 20 22 35 12 15 28 41 34 57 12 28 12 30 -9 32 -12 0 -32 0 -44 -1 -29 -2 -29 16 0 40 24 20 62 25 72 9 9 -15 25 -2 25 22 0 17 -4 19 -25 14 -27 -7 -65 8 -65 26 0 6 10 4 25 -6 28 -19 35 -20 35 -6 0 6 -7 10 -15 10 -8 0 -15 5 -15 10 0 6 -7 10 -15 10 -8 0 -19 8 -24 19 -6 10 -23 21 -38 24 -16 3 -48 10 -73 16 -25 6 -55 13 -67 16 -51 12 -17 20 79 20 122 0 178 20 178 62 0 14 -4 21 -10 18 -6 -3 -17 6 -26 22 -9 15 -39 46 -66 68 -84 67 -126 115 -100 115 4 0 21 -13 37 -28 71 -65 86 -72 142 -71 30 1 56 6 59 10 3 5 -6 21 -20 36 -27 29 -36 54 -12 34 8 -7 35 -13 60 -14 25 -1 46 -6 46 -11 0 -5 6 -3 13 3 8 6 17 8 21 4 4 -4 0 6 -8 22 -9 17 -16 36 -16 43 0 7 -5 10 -10 7 -6 -4 -13 7 -16 24 -4 17 -9 29 -13 28 -9 -2 -81 47 -81 56 0 12 60 -23 67 -38 3 -8 9 -13 13 -10 5 3 15 -2 24 -10 8 -8 29 -18 45 -21 17 -4 28 -10 25 -15 -3 -5 2 -9 10 -9 9 0 13 6 10 14 -3 9 1 13 13 13 14 -2 17 5 16 33 -1 19 0 28 3 19 3 -11 12 -15 24 -12 11 3 17 9 14 14 -3 5 0 9 5 9 6 0 11 -4 11 -9 0 -5 10 -13 21 -16 15 -5 18 -9 9 -15 -9 -5 -9 -9 -1 -14 7 -5 17 5 24 23 7 17 16 29 18 27 8 -9 -8 247 -18 274 -3 8 -6 62 -7 120 -1 58 -3 153 -4 213 l-2 107 -600 0 -600 0 5 -992z m1100 432 c3 -5 4 -10 1 -10 -3 0 -8 5 -11 10 -3 6 -4 10 -1 10 3 0 8 -4 11 -10z m15 -52 c0 -5 -4 -8 -10 -8 -5 0 -10 10 -10 23 0 18 2 19 10 7 5 -8 10 -18 10 -22z m-13 -50 c-3 -8 -6 -5 -6 6 -1 11 2 17 5 13 3 -3 4 -12 1 -19z m200 -20 c-3 -8 -6 -5 -6 6 -1 11 2 17 5 13 3 -3 4 -12 1 -19z m468 -95 c-19 -29 -75 -82 -87 -83 -22 -1 -2 32 43 75 54 50 73 54 44 8z m-778 -70 c-4 -3 -7 0 -7 7 0 7 3 10 7 7 3 -4 3 -10 0 -14z m1513 -298 c0 -2 -9 -9 -20 -15 -16 -9 -18 -8 -14 5 5 13 34 22 34 10z m-853 -242 c-4 -3 -7 0 -7 7 0 7 3 10 7 7 3 -4 3 -10 0 -14z m29 -65 c56 -44 67 -61 24 -38 -24 13 -72 60 -61 60 5 0 21 -10 37 -22z m-131 -18 c3 -5 4 -10 1 -10 -3 0 -8 5 -11 10 -3 6 -4 10 -1 10 3 0 8 -4 11 -10z m1050 -369 c3 -5 1 -12 -5 -16 -5 -3 -10 1 -10 9 0 18 6 21 15 7z m-2355 -85 c0 -3 -5 -8 -12 -12 -7 -4 -8 -3 -4 4 7 12 16 16 16 8z m177 -16 c-6 -8 -12 -16 -13 -18 -1 -1 -4 5 -6 15 -4 13 0 19 13 19 14 0 16 -3 6 -16z m143 16 c0 -3 -5 -8 -12 -12 -7 -4 -8 -3 -4 4 7 12 16 16 16 8z m-83 -13 c-4 -3 -10 -3 -14 0 -3 4 0 7 7 7 7 0 10 -3 7 -7z m-220 -10 c-4 -3 -10 -3 -14 0 -3 4 0 7 7 7 7 0 10 -3 7 -7z m180 -20 c-4 -3 -7 0 -7 7 0 7 3 10 7 7 3 -4 3 -10 0 -14z m84 -15 c8 -15 8 -18 0 -14 -6 4 -16 16 -22 28 -8 15 -8 18 0 14 6 -4 16 -16 22 -28z m-334 15 c-4 -3 -10 -3 -14 0 -3 4 0 7 7 7 7 0 10 -3 7 -7z m50 0 c-4 -3 -10 -3 -14 0 -3 4 0 7 7 7 7 0 10 -3 7 -7z m90 0 c-4 -3 -10 -3 -14 0 -3 4 0 7 7 7 7 0 10 -3 7 -7z m40 0 c-4 -3 -10 -3 -14 0 -3 4 0 7 7 7 7 0 10 -3 7 -7z m180 -10 c-4 -3 -7 0 -7 7 0 7 3 10 7 7 3 -4 3 -10 0 -14z m-247 -28 c-5 -7 -7 -15 -3 -18 3 -4 1 -7 -5 -7 -6 0 -10 8 -9 18 0 10 7 19 14 19 9 0 10 -4 3 -12z m87 8 c-4 -3 -10 -3 -14 0 -3 4 0 7 7 7 7 0 10 -3 7 -7z m90 1 c-3 -3 -12 -4 -19 -1 -8 3 -5 6 6 6 11 1 17 -2 13 -5z m143 -45 c0 -6 -4 -7 -10 -4 -5 3 -10 11 -10 16 0 6 5 7 10 4 6 -3 10 -11 10 -16z m-243 -11 c-3 -8 -6 -5 -6 6 -1 11 2 17 5 13 3 -3 4 -12 1 -19z m113 18 c0 -3 -5 -8 -12 -12 -7 -4 -8 -3 -4 4 7 12 16 16 16 8z m-330 -10 c0 -3 -5 -8 -12 -12 -7 -4 -8 -3 -4 4 7 12 16 16 16 8z m127 -13 c-4 -3 -7 0 -7 7 0 7 3 10 7 7 3 -4 3 -10 0 -14z m40 0 c-4 -3 -7 0 -7 7 0 7 3 10 7 7 3 -4 3 -10 0 -14z m130 0 c-4 -3 -7 0 -7 7 0 7 3 10 7 7 3 -4 3 -10 0 -14z m200 0 c-4 -3 -7 0 -7 7 0 7 3 10 7 7 3 -4 3 -10 0 -14z m-430 -25 c-6 -17 181 -11 203 5 12 10 13 9 3 -3 -9 -12 -8 -20 3 -35 14 -19 14 -19 12 5 -2 17 1 24 11 22 7 -1 20 3 29 10 10 9 13 9 9 1 -4 -6 -3 -14 3 -18 5 -3 10 -12 10 -18 0 -8 -3 -8 -9 1 -7 11 -9 11 -13 0 -3 -8 4 -18 18 -25 21 -10 24 -9 24 11 0 12 -4 26 -10 32 -6 6 17 8 60 6 52 -3 70 -7 70 -18 0 -8 4 -14 9 -14 6 0 8 8 6 18 -3 15 4 17 48 15 28 -2 56 -8 61 -13 7 -7 6 -10 -2 -10 -16 0 -15 -19 3 -54 19 -35 19 -33 -4 -39 -14 -3 -17 0 -14 13 3 10 0 21 -6 24 -7 4 -11 -1 -11 -13 0 -21 -21 -27 -74 -21 -11 1 -15 -3 -12 -9 5 -7 1 -8 -9 -4 -11 4 -13 8 -5 13 6 3 8 14 4 23 -3 9 -9 15 -13 12 -4 -2 -8 2 -8 10 0 8 5 11 10 8 6 -3 6 1 0 12 -6 10 -24 19 -40 21 -27 3 -30 1 -28 -20 2 -13 6 -33 9 -44 6 -19 3 -20 -69 -20 -53 1 -73 4 -65 12 5 5 10 14 10 20 0 5 -6 2 -13 -8 -8 -11 -33 -22 -59 -26 l-46 -7 3 56 c3 41 2 50 -5 34 -10 -23 -30 -32 -30 -12 0 5 5 7 10 4 6 -3 10 -1 10 4 0 6 -7 11 -16 11 -12 0 -15 -9 -12 -42 3 -45 1 -48 -33 -48 -15 0 -19 4 -15 16 5 14 4 15 -8 5 -16 -14 -79 -33 -72 -23 2 4 -2 12 -9 19 -10 10 -14 9 -19 -2 -7 -20 -60 -19 -80 1 -20 20 -21 73 -1 80 8 4 13 9 10 13 -6 10 57 1 72 -11 7 -5 14 -5 18 2 3 5 19 10 36 10 16 0 29 5 29 10 0 6 3 10 6 10 3 0 4 -6 1 -12z m90 5 c-4 -3 -10 -3 -14 0 -3 4 0 7 7 7 7 0 10 -3 7 -7z m278 -53 c3 -5 4 -10 1 -10 -3 0 -8 5 -11 10 -3 6 -4 10 -1 10 3 0 8 -4 11 -10z m-568 -17 c-4 -3 -7 0 -7 7 0 7 3 10 7 7 3 -4 3 -10 0 -14z m558 -3 c3 -5 4 -10 1 -10 -3 0 -8 5 -11 10 -3 6 -4 10 -1 10 3 0 8 -4 11 -10z m-258 -17 c-4 -3 -7 0 -7 7 0 7 3 10 7 7 3 -4 3 -10 0 -14z m280 -10 c-4 -3 -7 0 -7 7 0 7 3 10 7 7 3 -4 3 -10 0 -14z m-596 -46 c-10 -9 -11 -8 -5 6 3 10 9 15 12 12 3 -3 0 -11 -7 -18z m219 13 c0 -5 -2 -10 -4 -10 -3 0 -8 5 -11 10 -3 6 -1 10 4 10 6 0 11 -4 11 -10z m80 -5 c-7 -8 -17 -15 -23 -15 -6 0 -2 7 9 15 25 19 30 19 14 0z m-99 -12 c11 -15 11 -16 -1 -5 -18 15 -34 16 -24 0 4 -7 3 -8 -5 -4 -12 8 -6 26 8 26 5 0 15 -8 22 -17z m196 10 c-4 -3 -10 -3 -14 0 -3 4 0 7 7 7 7 0 10 -3 7 -7z m90 0 c-4 -3 -10 -3 -14 0 -3 4 0 7 7 7 7 0 10 -3 7 -7z m66 0 c-7 -2 -19 -2 -25 0 -7 3 -2 5 12 5 14 0 19 -2 13 -5z m210 -8 c-3 -9 -8 -14 -10 -11 -3 3 -2 9 2 15 9 16 15 13 8 -4z m-638 -5 c3 -5 4 -10 1 -10 -3 0 -8 5 -11 10 -3 6 -4 10 -1 10 3 0 8 -4 11 -10z m130 0 c3 -5 4 -10 1 -10 -3 0 -8 5 -11 10 -3 6 -4 10 -1 10 3 0 8 -4 11 -10z m475 6 c0 -3 -5 -8 -12 -12 -7 -4 -8 -3 -4 4 7 12 16 16 16 8z"/>
 <path d="M86 203 c-12 -12 -6 -54 9 -59 18 -7 50 16 51 38 1 10 -2 15 -7 12 -5 -3 -9 -1 -9 3 0 10 -35 14 -44 6z m39 -23 c3 -5 1 -10 -4 -10 -6 0 -11 5 -11 10 0 6 2 10 4 10 3 0 8 -4 11 -10z"/>
 <path d="M184 196 c-9 -23 0 -51 16 -51 9 0 15 12 16 34 1 22 -1 29 -7 20 -5 -8 -6 -23 -3 -34 4 -16 3 -17 -5 -5 -6 8 -8 23 -5 33 6 20 -4 23 -12 3z"/>
 <path d="M382 175 c-1 -29 2 -36 16 -33 23 4 24 61 1 66 -12 2 -16 -6 -17 -33z m25 -5 c-1 -11 -5 -20 -9 -20 -10 0 -10 4 -2 24 8 22 13 20 11 -4z"/>
 <path d="M701 173 c-15 -53 -14 -59 8 -32 27 36 36 69 17 69 -9 0 -19 -15 -25 -37z"/>
 <path d="M493 155 c0 -8 4 -12 9 -9 5 3 6 10 3 15 -9 13 -12 11 -12 -6z"/>
 <path d="M2570 1270 c0 -5 5 -10 10 -10 6 0 10 5 10 10 0 6 -4 10 -10 10 -5 0 -10 -4 -10 -10z"/>
 </g>
<g id="layer116" fill="#f5c55d" stroke="none">
 <path d="M1184 1780 c-26 -10 -64 -57 -64 -79 0 -22 38 -93 57 -108 13 -10 19 -9 35 9 14 16 18 37 18 88 0 76 -14 103 -46 90z"/>
 <path d="M1270 1769 c0 -14 6 -33 14 -44 7 -11 16 -34 20 -51 4 -17 22 -48 41 -68 27 -30 33 -43 29 -65 -4 -18 0 -32 11 -41 20 -17 39 -7 63 33 14 23 15 30 3 48 -9 16 -10 24 -2 29 20 12 31 71 21 110 -12 46 -42 61 -132 68 -67 5 -68 4 -68 -19z"/>
 <path d="M1015 1716 c-22 -12 -55 -36 -74 -54 -29 -26 -32 -33 -21 -46 17 -21 113 -76 133 -76 27 0 47 46 47 109 0 99 -12 108 -85 67z"/>
 <path d="M1504 1694 c-10 -15 -19 -50 -21 -81 -1 -29 -4 -57 -7 -61 -6 -11 5 -27 28 -39 40 -22 146 30 146 71 0 25 -28 56 -52 56 -17 0 -41 39 -36 60 6 28 -40 23 -58 -6z"/>
 <path d="M847 1563 c-43 -51 -40 -61 24 -93 37 -19 103 -29 114 -18 14 14 -9 81 -37 109 -52 51 -59 51 -101 2z"/>
 <path d="M792 1478 c-5 -7 -13 -27 -16 -44 -6 -25 -3 -32 16 -42 18 -10 98 -11 126 -3 9 2 -54 68 -80 83 -34 21 -33 21 -46 6z"/>
 <path d="M1575 1461 c-10 -17 11 -21 31 -6 18 14 18 14 -3 15 -12 0 -24 -4 -28 -9z"/>
 <path d="M1711 1446 c-7 -8 -21 -13 -31 -11 -25 5 -47 -22 -55 -67 -6 -30 -4 -39 9 -44 9 -3 14 -10 11 -14 -3 -4 5 -26 17 -49 18 -34 28 -41 67 -50 26 -5 50 -6 55 -1 10 10 -1 97 -14 105 -5 3 2 24 15 45 27 44 31 70 13 88 -17 17 -73 15 -87 -2z"/>
 <path d="M753 1358 c0 -7 -4 -46 -7 -86 -5 -59 -4 -74 8 -78 30 -11 116 30 116 55 0 18 -91 121 -107 121 -5 0 -10 -6 -10 -12z"/>
 <path d="M1808 1213 c7 -3 16 -2 19 1 4 3 -2 6 -13 5 -11 0 -14 -3 -6 -6z"/>
 <path d="M1713 1183 c-18 -2 -33 -8 -33 -12 0 -4 -17 -15 -37 -24 -51 -22 -68 -60 -45 -96 9 -14 20 -29 25 -32 4 -3 7 -10 6 -15 -5 -16 12 -52 26 -58 24 -9 18 -28 -6 -21 -18 6 -20 5 -10 -14 13 -23 60 -39 70 -24 3 6 24 32 46 57 22 26 40 50 41 54 3 30 18 89 24 97 5 6 10 28 12 50 l3 40 -45 1 c-25 1 -60 -1 -77 -3z"/>
 <path d="M765 1130 c3 -5 8 -10 11 -10 2 0 4 5 4 10 0 6 -5 10 -11 10 -5 0 -7 -4 -4 -10z"/>
 <path d="M850 1070 c0 -5 5 -10 10 -10 6 0 10 5 10 10 0 6 -4 10 -10 10 -5 0 -10 -4 -10 -10z"/>
 <path d="M800 1045 c0 -22 3 -24 30 -19 17 4 36 2 43 -5 17 -13 27 -5 27 22 0 15 -5 18 -24 13 -14 -3 -36 -2 -50 4 -24 9 -26 7 -26 -15z"/>
 <path d="M832 958 c6 -18 25 -20 31 -3 5 10 0 15 -14 15 -12 0 -19 -5 -17 -12z"/>
 <path d="M1512 913 c2 -20 10 -29 28 -33 16 -4 26 -14 28 -28 3 -18 -2 -22 -22 -22 -15 0 -26 6 -26 14 0 7 -6 19 -14 25 -12 10 -13 5 -9 -31 7 -66 9 -69 40 -62 78 17 103 38 103 88 0 40 -89 94 -90 54 0 -7 -5 -5 -11 5 -15 26 -31 20 -27 -10z"/>
 <path d="M915 897 c-17 -13 -17 -15 3 -35 12 -12 22 -26 22 -32 0 -5 4 -10 10 -10 14 0 42 59 36 76 -7 17 -36 19 -36 2 0 -10 -2 -10 -8 -1 -7 10 -12 10 -27 0z"/>
 <path d="M1003 817 c-8 -16 -7 -25 3 -35 11 -10 15 -8 24 7 5 11 10 27 10 35 0 24 -25 19 -37 -7z"/>
 <path d="M1386 822 c-2 -4 -3 -28 -2 -52 3 -52 17 -59 78 -39 43 14 44 16 22 48 -10 14 -23 21 -35 18 -12 -3 -20 2 -24 14 -6 19 -30 26 -39 11z"/>
 <path d="M1299 816 c-8 -9 2 -76 12 -76 17 0 22 51 7 66 -8 8 -16 12 -19 10z"/>
 <path d="M1185 780 c-8 -13 4 -32 16 -25 12 8 12 35 0 35 -6 0 -13 -4 -16 -10z"/>
 <path d="M1090 750 c0 -7 3 -10 7 -7 3 4 3 10 0 14 -4 3 -7 0 -7 -7z"/>
 <path d="M564 349 c-5 -8 -14 -25 -21 -39 -8 -17 -12 -20 -12 -8 -2 40 -70 65 -99 36 -9 -9 -12 -9 -12 0 0 15 -256 17 -265 2 -3 -6 -1 -10 4 -10 6 0 11 -16 11 -35 0 -19 -4 -35 -9 -35 -18 0 -41 43 -35 67 5 20 2 23 -21 23 -20 0 -26 -4 -21 -15 3 -8 0 -15 -7 -15 -9 0 -9 -2 1 -8 10 -7 8 -15 -9 -36 -26 -33 -21 -39 28 -38 102 2 138 8 137 20 -1 6 -2 23 -3 37 -1 17 -5 23 -16 19 -8 -4 -15 -1 -15 5 0 5 14 9 31 8 31 -2 31 -3 25 -45 -5 -41 -4 -43 16 -40 20 3 22 8 20 45 -3 41 -2 43 23 41 26 -2 27 -5 22 -45 -4 -41 -4 -43 23 -43 27 0 27 1 22 46 -4 41 -3 46 14 42 10 -2 19 -10 20 -18 1 -27 15 -60 26 -60 7 0 6 -5 -1 -14 -10 -12 -6 -12 29 0 23 8 45 12 49 9 14 -8 125 -10 138 -2 9 6 5 21 -13 57 -25 51 -44 64 -44 33 -1 -14 -4 -13 -14 6 -10 19 -15 21 -22 10z m-71 -41 c6 -21 -7 -48 -23 -48 -12 0 -21 31 -15 51 9 26 31 24 38 -3z m78 -35 c-12 -20 -14 -14 -5 12 4 9 9 14 11 11 3 -2 0 -13 -6 -23z m63 -12 c-6 -6 -24 19 -24 34 1 6 7 1 15 -9 8 -11 12 -22 9 -25z m-414 8 c0 -5 -4 -9 -10 -9 -5 0 -10 7 -10 16 0 8 5 12 10 9 6 -3 10 -10 10 -16z m-100 -9 c0 -11 -4 -20 -9 -20 -7 0 -8 17 -2 38 4 10 11 -2 11 -18z"/>
 <path d="M20 280 c0 -7 3 -10 7 -7 3 4 3 10 0 14 -4 3 -7 0 -7 -7z"/>
 <path d="M30 230 c0 -7 3 -10 7 -7 3 4 3 10 0 14 -4 3 -7 0 -7 -7z"/>
 <path d="M733 233 c4 -3 10 -3 14 0 3 4 0 7 -7 7 -7 0 -10 -3 -7 -7z"/>
 <path d="M233 223 c4 -3 10 -3 14 0 3 4 0 7 -7 7 -7 0 -10 -3 -7 -7z"/>
 <path d="M520 220 c0 -7 3 -10 7 -7 3 4 3 10 0 14 -4 3 -7 0 -7 -7z"/>
 <path d="M45 209 c-4 -6 -5 -12 -2 -15 2 -3 7 2 10 11 7 17 1 20 -8 4z"/>
 <path d="M84 198 c-4 -7 -3 -8 4 -4 12 7 16 16 8 16 -3 0 -8 -5 -12 -12z"/>
 <path d="M450 200 c0 -7 3 -10 7 -7 3 4 3 10 0 14 -4 3 -7 0 -7 -7z"/>
 <path d="M134 188 c-4 -7 -3 -8 4 -4 7 4 12 9 12 12 0 8 -9 4 -16 -8z"/>
 <path d="M525 180 c3 -5 8 -10 11 -10 3 0 2 5 -1 10 -3 6 -8 10 -11 10 -3 0 -2 -4 1 -10z"/>
 <path d="M381 163 c-1 -23 22 -32 34 -13 3 5 0 7 -9 4 -8 -3 -16 2 -19 13 -4 14 -5 14 -6 -4z"/>
 <path d="M46 147 c3 -10 9 -15 12 -12 3 3 0 11 -7 18 -10 9 -11 8 -5 -6z"/>
 <path d="M785 150 c3 -5 8 -10 11 -10 3 0 2 5 -1 10 -3 6 -8 10 -11 10 -3 0 -2 -4 1 -10z"/>
 <path d="M98 143 c7 -3 16 -2 19 1 4 3 -2 6 -13 5 -11 0 -14 -3 -6 -6z"/>
 <path d="M244 138 c-4 -7 -3 -8 4 -4 12 7 16 16 8 16 -3 0 -8 -5 -12 -12z"/>
 <path d="M444 138 c-4 -7 -3 -8 4 -4 12 7 16 16 8 16 -3 0 -8 -5 -12 -12z"/>
 <path d="M40 110 c0 -7 3 -10 7 -7 3 4 3 10 0 14 -4 3 -7 0 -7 -7z"/>
 <path d="M103 113 c4 -3 10 -3 14 0 3 4 0 7 -7 7 -7 0 -10 -3 -7 -7z"/>
 <path d="M773 113 c4 -3 10 -3 14 0 3 4 0 7 -7 7 -7 0 -10 -3 -7 -7z"/>
 </g>
<g id="layer117" fill="#f6b86b" stroke="none">
 <path d="M1206 1771 c-4 -6 -15 -11 -25 -11 -21 0 -46 -26 -54 -57 -5 -24 25 -90 50 -110 13 -10 19 -9 35 9 14 16 18 37 18 87 0 67 -11 103 -24 82z"/>
 <path d="M1276 1764 c-3 -9 0 -26 7 -38 8 -12 17 -35 21 -52 4 -17 23 -47 42 -68 24 -26 33 -43 29 -56 -7 -24 11 -60 30 -60 16 0 55 51 55 73 0 8 -7 18 -15 21 -14 5 -13 10 6 36 14 18 22 42 21 65 -3 69 -20 80 -138 92 -42 4 -52 2 -58 -13z"/>
 <path d="M988 1685 c-38 -25 -68 -51 -68 -59 0 -16 83 -72 121 -81 41 -10 61 29 57 113 -3 58 -6 67 -23 69 -11 2 -50 -18 -87 -42z"/>
 <path d="M1506 1678 c-8 -13 -17 -52 -20 -88 -5 -60 -3 -66 17 -75 27 -13 84 1 122 30 25 18 26 22 14 48 -7 15 -22 30 -34 33 -12 3 -29 21 -38 40 -19 39 -40 43 -61 12z"/>
 <path d="M885 1601 c3 -6 -1 -13 -8 -18 -24 -14 -60 -71 -52 -82 13 -22 85 -51 126 -51 l41 0 -7 37 c-8 45 -23 67 -66 99 -35 26 -44 29 -34 15z"/>
 <path d="M800 1465 c0 -14 -4 -25 -10 -25 -15 0 -12 -36 4 -49 11 -9 98 -10 124 -2 2 1 -4 8 -12 16 -9 9 -21 24 -28 33 -13 17 -62 52 -73 52 -3 0 -5 -11 -5 -25z"/>
 <path d="M1580 1460 c-13 -8 -12 -10 3 -10 9 0 17 5 17 10 0 12 -1 12 -20 0z"/>
 <path d="M1722 1440 c-11 -11 -24 -16 -27 -10 -11 17 -51 -11 -63 -44 -17 -45 -15 -54 9 -61 17 -6 19 -9 8 -17 -11 -7 -11 -11 -1 -15 6 -2 12 -12 12 -20 0 -36 68 -74 108 -60 9 3 11 69 2 82 -3 6 -11 23 -18 38 -9 22 -9 28 1 26 25 -3 34 2 45 26 14 31 8 49 -24 64 -31 14 -26 15 -52 -9z"/>
 <path d="M764 1349 c-11 -18 -14 -148 -3 -154 13 -8 75 13 94 32 18 18 19 28 2 45 -7 7 -20 25 -30 40 -21 34 -53 53 -63 37z"/>
 <path d="M1713 1183 c-20 -3 -33 -10 -33 -19 0 -8 -10 -14 -22 -14 -31 -1 -62 -26 -55 -44 3 -8 1 -16 -4 -18 -11 -4 8 -68 21 -68 4 0 11 -16 14 -35 5 -22 13 -35 23 -35 15 0 15 12 -2 53 -4 9 -3 17 3 17 13 0 22 -51 15 -79 -3 -13 -11 -20 -19 -17 -8 3 -14 1 -14 -4 0 -12 29 -40 41 -40 16 0 63 54 83 95 10 22 23 48 27 57 5 10 9 26 9 36 0 10 5 23 10 28 6 6 11 28 13 50 l2 39 -40 1 c-22 1 -55 -1 -72 -3z"/>
 <path d="M850 1070 c0 -5 5 -10 10 -10 6 0 10 5 10 10 0 6 -4 10 -10 10 -5 0 -10 -4 -10 -10z"/>
 <path d="M810 1043 c0 -8 12 -13 29 -13 17 0 33 -5 36 -10 9 -15 25 -2 25 19 0 14 -9 18 -45 18 -31 0 -45 -5 -45 -14z"/>
 <path d="M840 961 c0 -17 18 -21 24 -6 3 9 0 15 -9 15 -8 0 -15 -4 -15 -9z"/>
 <path d="M1510 927 c0 -21 30 -54 36 -39 9 20 24 3 24 -28 0 -30 -21 -44 -51 -35 -20 7 -25 -9 -13 -38 4 -11 13 -13 41 -7 20 5 39 12 42 17 3 4 15 13 26 19 27 15 32 65 8 86 -25 22 -73 32 -73 16 -1 -8 -6 -6 -14 5 -16 20 -26 22 -26 4z"/>
 <path d="M920 883 c0 -8 5 -11 10 -8 6 3 10 -2 10 -12 0 -10 4 -24 9 -32 7 -11 13 -7 25 17 23 44 20 52 -19 50 -23 -1 -35 -6 -35 -15z"/>
 <path d="M1006 824 c-9 -22 14 -50 25 -32 13 20 10 48 -5 48 -8 0 -17 -7 -20 -16z"/>
 <path d="M1387 823 c-12 -11 -8 -41 6 -46 9 -3 9 -8 -2 -21 -13 -15 -13 -19 0 -26 8 -6 18 -5 23 0 6 6 27 10 48 10 42 0 45 5 22 39 -10 14 -23 21 -35 18 -12 -3 -20 2 -24 14 -6 19 -26 25 -38 12z"/>
 <path d="M1300 779 c1 -41 2 -43 15 -25 19 25 19 40 0 56 -13 11 -15 6 -15 -31z"/>
 <path d="M1190 775 c0 -8 5 -15 10 -15 6 0 10 7 10 15 0 8 -4 15 -10 15 -5 0 -10 -7 -10 -15z"/>
 <path d="M552 322 l-19 -43 -6 30 c-7 36 -44 50 -83 32 -13 -6 -24 -6 -24 -1 0 12 -258 11 -265 -1 -4 -5 -1 -9 4 -9 6 0 11 -16 11 -35 0 -19 -4 -35 -9 -35 -18 0 -41 43 -35 67 5 20 2 23 -20 23 -24 0 -26 -3 -21 -29 3 -19 0 -35 -10 -45 -17 -16 -20 -36 -6 -36 5 0 16 -3 24 -6 12 -4 14 0 10 14 -2 11 0 23 6 26 7 4 11 -1 11 -13 0 -18 6 -19 58 -18 38 1 57 6 56 15 -1 6 -2 21 -3 33 -1 14 -6 19 -16 15 -9 -3 -15 0 -15 9 0 10 10 14 31 12 31 -2 31 -3 25 -45 -5 -41 -4 -43 16 -40 20 3 22 8 20 45 -3 41 -3 42 27 41 28 -1 31 -4 31 -35 0 -18 -4 -33 -10 -33 -5 0 -10 -4 -10 -10 0 -5 14 -10 30 -10 28 0 40 13 22 24 -5 3 -7 19 -4 36 5 37 36 38 38 2 1 -12 9 -30 18 -40 13 -15 13 -21 3 -32 -10 -12 -9 -12 6 -1 11 9 40 13 80 12 34 -1 73 -2 87 -3 59 -1 61 5 30 70 -21 44 -40 55 -40 25 -1 -14 -4 -12 -15 7 l-14 25 -19 -43z m-58 -17 c7 -29 1 -45 -19 -45 -17 0 -27 27 -20 51 9 27 32 23 39 -6z m86 -8 c0 -7 -7 -22 -15 -33 -13 -17 -13 -16 -3 14 13 34 18 40 18 19z m54 -36 c-6 -6 -24 19 -24 34 1 6 7 1 15 -9 8 -11 12 -22 9 -25z m-414 8 c0 -5 -4 -9 -10 -9 -5 0 -10 7 -10 16 0 8 5 12 10 9 6 -3 10 -10 10 -16z"/>
 <path d="M20 280 c0 -7 3 -10 7 -7 3 4 3 10 0 14 -4 3 -7 0 -7 -7z"/>
 <path d="M520 220 c0 -7 3 -10 7 -7 3 4 3 10 0 14 -4 3 -7 0 -7 -7z"/>
 <path d="M84 198 c-4 -7 -3 -8 4 -4 12 7 16 16 8 16 -3 0 -8 -5 -12 -12z"/>
 <path d="M382 160 c0 -14 2 -19 5 -12 2 6 2 18 0 25 -3 6 -5 1 -5 -13z"/>
 <path d="M785 150 c3 -5 8 -10 11 -10 3 0 2 5 -1 10 -3 6 -8 10 -11 10 -3 0 -2 -4 1 -10z"/>
 <path d="M50 140 c0 -7 3 -10 7 -7 3 4 3 10 0 14 -4 3 -7 0 -7 -7z"/>
 <path d="M244 138 c-4 -7 -3 -8 4 -4 12 7 16 16 8 16 -3 0 -8 -5 -12 -12z"/>
 <path d="M103 113 c4 -3 10 -3 14 0 3 4 0 7 -7 7 -7 0 -10 -3 -7 -7z"/>
 <path d="M773 113 c4 -3 10 -3 14 0 3 4 0 7 -7 7 -7 0 -10 -3 -7 -7z"/>
 </g>
<g id="layer118" fill="#fac773" stroke="none">
 <path d="M1277 1766 c-3 -7 0 -22 7 -32 8 -11 16 -30 20 -44 13 -45 40 -90 58 -96 14 -4 18 -16 18 -49 0 -46 20 -66 46 -44 18 15 28 69 16 81 -7 7 -5 22 9 47 22 42 24 80 5 106 -26 36 -168 61 -179 31z"/>
 <path d="M1185 1763 c-59 -14 -72 -74 -30 -136 14 -20 30 -37 34 -37 13 0 29 23 31 45 5 44 0 135 -7 134 -5 -1 -17 -4 -28 -6z"/>
 <path d="M1015 1702 c-68 -45 -97 -71 -91 -81 12 -19 100 -71 121 -71 30 0 57 50 51 97 -3 21 -5 48 -5 61 -1 29 -25 28 -76 -6z"/>
 <path d="M1506 1678 c-7 -13 -16 -51 -19 -86 -5 -59 -4 -64 18 -72 28 -11 84 3 116 29 30 24 20 65 -20 79 -17 6 -34 23 -42 41 -16 37 -33 39 -53 9z"/>
 <path d="M860 1559 c-19 -21 -35 -44 -35 -51 0 -18 84 -58 122 -58 29 0 33 3 33 26 0 14 -5 35 -11 47 -13 25 -60 77 -68 77 -3 -1 -22 -19 -41 -41z"/>
 <path d="M800 1466 c0 -14 -4 -26 -10 -26 -16 0 -11 -32 8 -46 20 -16 72 -18 72 -4 0 7 6 7 20 0 50 -27 -6 52 -59 83 l-31 18 0 -25z"/>
 <path d="M1585 1460 c-3 -5 -1 -10 4 -10 6 0 11 5 11 10 0 6 -2 10 -4 10 -3 0 -8 -4 -11 -10z"/>
 <path d="M1716 1434 c-9 -8 -20 -12 -26 -9 -16 10 -50 -5 -50 -21 0 -8 -6 -23 -12 -35 -11 -17 -10 -22 7 -35 11 -9 19 -20 17 -25 -1 -5 7 -27 17 -48 19 -37 46 -51 97 -51 20 0 17 41 -6 95 -24 56 -24 59 -6 52 17 -7 46 33 46 62 0 32 -57 43 -84 15z"/>
 <path d="M764 1347 c-3 -8 -6 -45 -7 -83 l-2 -69 29 3 c35 4 76 29 76 47 0 19 -41 79 -68 99 -18 14 -23 15 -28 3z"/>
 <path d="M1723 1178 c-24 -6 -43 -15 -43 -19 0 -5 -10 -9 -22 -9 -31 -1 -62 -26 -55 -44 4 -9 2 -18 -3 -21 -10 -6 -3 -33 15 -55 7 -8 16 -30 20 -47 4 -20 13 -33 21 -33 15 0 14 11 -3 58 -3 6 0 12 6 12 11 0 12 -4 16 -72 2 -33 0 -36 -16 -27 -25 13 -24 -3 1 -26 21 -19 22 -18 58 22 45 49 78 112 73 140 -1 7 5 23 13 35 9 13 17 39 18 58 3 33 1 35 -27 37 -16 0 -49 -4 -72 -9z"/>
 <path d="M853 1073 c4 -3 10 -3 14 0 3 4 0 7 -7 7 -7 0 -10 -3 -7 -7z"/>
 <path d="M810 1043 c0 -9 8 -11 25 -7 15 4 32 1 40 -6 10 -9 15 -9 15 -1 0 6 1 14 3 17 1 3 -17 7 -40 8 -30 2 -43 -2 -43 -11z"/>
 <path d="M845 960 c-3 -5 -1 -10 4 -10 6 0 11 5 11 10 0 6 -2 10 -4 10 -3 0 -8 -4 -11 -10z"/>
 <path d="M1516 932 c-8 -13 10 -52 24 -52 13 0 12 10 -4 39 -8 15 -16 20 -20 13z"/>
 <path d="M1560 917 c0 -7 4 -29 9 -49 8 -33 6 -37 -14 -42 -13 -3 -31 -3 -39 0 -17 6 -21 -11 -10 -39 4 -12 11 -12 37 -3 79 29 105 58 86 100 -13 27 -69 54 -69 33z"/>
 <path d="M920 884 c0 -8 5 -12 10 -9 6 3 10 10 10 16 0 5 -4 9 -10 9 -5 0 -10 -7 -10 -16z"/>
 <path d="M948 877 c-10 -52 14 -64 31 -16 14 41 14 39 -8 39 -12 0 -20 -9 -23 -23z"/>
 <path d="M1010 821 c-7 -14 -7 -22 1 -26 13 -8 15 -6 23 23 9 27 -9 30 -24 3z"/>
 <path d="M1384 815 c-4 -8 -1 -21 4 -28 6 -7 9 -22 6 -34 -6 -22 10 -40 21 -23 3 5 19 10 35 10 32 0 43 11 34 33 -7 18 -44 30 -44 14 -1 -7 -8 0 -16 16 -16 30 -32 35 -40 12z"/>
 <path d="M1300 781 c0 -17 5 -31 10 -31 6 0 10 11 10 24 0 14 -4 28 -10 31 -6 4 -10 -7 -10 -24z"/>
 <path d="M1190 776 c0 -9 5 -16 10 -16 6 0 10 4 10 9 0 6 -4 13 -10 16 -5 3 -10 -1 -10 -9z"/>
 <path d="M86 325 c4 -16 0 -34 -10 -50 -20 -31 -20 -35 3 -35 11 0 21 9 25 23 7 21 7 21 15 2 7 -17 17 -20 62 -19 33 0 54 5 57 13 3 9 -2 11 -17 6 -15 -4 -21 -2 -21 9 0 10 6 13 15 10 10 -4 15 0 15 11 0 11 -5 15 -15 11 -9 -3 -15 0 -15 8 0 20 12 27 27 15 10 -9 13 -8 13 5 0 12 -10 16 -38 16 l-37 0 3 -45 c3 -34 1 -45 -10 -45 -19 0 -40 47 -33 71 5 15 1 19 -20 19 -22 0 -25 -3 -19 -25z"/>
 <path d="M256 297 c2 -39 6 -53 18 -55 13 -3 16 6 16 42 0 44 1 45 31 44 31 -1 31 -2 26 -45 -4 -37 -2 -43 14 -43 16 0 18 6 12 46 -6 44 -5 46 18 42 18 -2 25 -10 27 -31 5 -38 45 -64 77 -49 15 7 25 8 25 2 0 -24 27 -7 42 28 17 35 19 18 3 -21 -5 -12 -2 -17 9 -17 9 0 16 8 16 17 0 15 2 14 14 -3 19 -25 31 -12 16 16 -6 12 -9 24 -6 28 4 3 12 -9 18 -26 7 -18 16 -32 20 -32 12 0 10 14 -12 64 -21 47 -40 60 -40 29 -1 -17 -1 -17 -14 0 -19 24 -22 22 -40 -23 -17 -42 -28 -54 -19 -20 7 25 -22 60 -49 60 -11 0 -28 -5 -39 -10 -12 -7 -19 -7 -19 -1 0 6 -35 10 -83 10 l-82 0 1 -52z m239 -2 c0 -39 -31 -48 -41 -11 -7 30 2 48 24 44 11 -2 17 -13 17 -33z"/>
 </g>
<g id="layer119" fill="#f1bb89" stroke="none">
 <path d="M1280 1757 c0 -8 6 -28 14 -44 8 -15 23 -47 33 -70 10 -24 26 -46 36 -49 11 -3 17 -16 17 -35 0 -46 17 -71 39 -59 26 13 36 59 17 78 -13 13 -12 17 5 35 13 15 19 35 19 69 0 60 -19 74 -112 84 -58 6 -68 4 -68 -9z"/>
 <path d="M1151 1734 c-26 -33 -26 -45 0 -95 15 -31 25 -40 42 -37 26 4 33 30 29 103 -4 50 -6 55 -27 55 -14 0 -32 -11 -44 -26z"/>
 <path d="M993 1677 c-35 -23 -63 -47 -63 -54 0 -16 89 -73 115 -73 35 0 56 49 47 112 -5 35 -12 53 -22 55 -8 1 -43 -17 -77 -40z"/>
 <path d="M1506 1671 c-3 -5 -7 -29 -9 -53 -2 -25 -7 -50 -11 -56 -3 -5 -3 -17 0 -26 15 -38 154 -2 154 40 0 20 -24 44 -44 44 -9 0 -22 14 -31 30 -15 29 -47 40 -59 21z"/>
 <path d="M860 1550 c-17 -22 -28 -45 -24 -51 9 -16 85 -49 112 -49 43 0 41 55 -4 109 -14 17 -32 31 -39 31 -7 0 -28 -18 -45 -40z"/>
 <path d="M799 1449 c-18 -34 4 -71 39 -67 15 2 26 8 25 16 -2 6 2 12 7 12 6 0 10 -4 10 -9 0 -5 7 -11 15 -15 24 -9 18 7 -19 47 -38 42 -60 46 -77 16z"/>
 <path d="M1720 1426 c0 -11 -9 -13 -35 -9 -28 4 -36 2 -41 -13 -3 -11 -10 -27 -15 -36 -6 -12 -3 -22 9 -34 9 -10 17 -22 18 -28 3 -41 31 -77 67 -88 31 -9 40 -9 47 2 9 14 -3 59 -26 102 -18 34 -18 38 4 38 26 0 42 20 42 52 0 25 -3 28 -35 28 -24 0 -35 -5 -35 -14z"/>
 <path d="M767 1343 c-4 -3 -7 -37 -7 -74 l0 -68 30 1 c50 2 93 60 55 74 -8 4 -15 12 -15 20 0 13 -38 54 -50 54 -4 0 -10 -3 -13 -7z"/>
 <path d="M1708 1173 c-17 -3 -28 -11 -28 -20 0 -10 -6 -13 -16 -9 -9 3 -26 -2 -37 -11 -28 -23 -31 -88 -5 -107 10 -7 15 -16 12 -19 -4 -3 -3 -14 1 -24 5 -10 7 -21 7 -25 -1 -5 3 -8 9 -8 8 0 9 14 5 43 -5 32 -4 39 5 30 6 -6 14 -34 17 -62 4 -48 4 -50 -19 -44 -21 6 -23 5 -10 -10 7 -9 18 -17 24 -17 21 0 74 67 91 115 10 28 26 67 37 87 10 20 19 48 19 62 0 24 -3 26 -42 25 -24 -1 -55 -4 -70 -6z"/>
 <path d="M877 1045 c-4 -8 -2 -17 3 -20 6 -4 10 3 10 14 0 25 -6 27 -13 6z"/>
 <path d="M843 1043 c4 -3 10 -3 14 0 3 4 0 7 -7 7 -7 0 -10 -3 -7 -7z"/>
 <path d="M1522 911 c2 -14 9 -26 16 -29 17 -5 15 10 -3 34 -15 18 -15 18 -13 -5z"/>
 <path d="M1565 903 c20 -53 18 -72 -10 -83 -15 -6 -31 -8 -36 -4 -5 3 -9 -4 -9 -14 0 -18 4 -19 39 -10 73 18 104 74 63 111 -25 23 -56 23 -47 0z"/>
 <path d="M957 893 c-11 -10 -8 -53 3 -53 12 0 30 41 23 53 -5 9 -17 9 -26 0z"/>
 <path d="M1018 834 c-5 -4 -8 -16 -8 -28 0 -14 3 -17 11 -9 6 6 9 19 7 28 -1 9 -6 13 -10 9z"/>
 <path d="M1386 805 c-3 -8 2 -19 11 -24 14 -7 15 -12 5 -24 -18 -21 -4 -25 46 -12 39 10 41 12 29 29 -8 11 -21 17 -29 14 -8 -4 -20 2 -26 13 -15 23 -28 24 -36 4z"/>
 <path d="M1305 791 c-3 -5 -1 -12 5 -16 5 -3 10 1 10 9 0 18 -6 21 -15 7z"/>
 <path d="M90 323 c0 -16 -7 -38 -15 -49 -19 -26 -19 -34 4 -34 11 0 21 9 25 23 l7 22 9 -23 c6 -13 15 -20 20 -17 8 5 6 15 -5 31 -9 14 -15 35 -13 47 2 14 -3 23 -14 25 -14 3 -18 -3 -18 -25z"/>
 <path d="M170 298 c5 -50 6 -52 34 -52 16 0 32 6 34 13 3 9 -2 11 -17 6 -15 -5 -21 -2 -21 9 0 9 5 15 11 13 6 -1 14 4 17 12 3 10 0 12 -12 8 -10 -4 -16 -1 -16 7 0 20 12 27 27 15 10 -9 13 -8 13 5 0 12 -10 16 -38 16 l-38 0 6 -52z"/>
 <path d="M254 334 c3 -9 6 -33 6 -55 0 -29 4 -39 16 -39 12 0 15 9 12 43 -3 41 -3 42 30 44 33 1 33 1 30 -40 -2 -32 1 -43 14 -45 13 -3 15 4 10 43 -5 45 -4 47 19 43 18 -2 25 -10 27 -31 2 -16 14 -34 28 -44 53 -35 114 39 64 79 -26 21 -51 23 -68 6 -8 -8 -15 -8 -24 -1 -7 6 -48 11 -91 11 -67 1 -78 -1 -73 -14z m244 -35 c2 -14 -4 -31 -12 -38 -13 -11 -17 -9 -27 12 -6 14 -9 33 -5 42 9 25 41 14 44 -16z"/>
 <path d="M566 343 c-7 -7 -46 -92 -46 -99 0 -2 6 -4 13 -4 6 0 20 17 29 38 l17 37 -6 -37 c-3 -25 -1 -38 6 -38 6 0 11 8 11 18 1 16 1 16 11 0 12 -22 34 -24 25 -3 -3 8 -9 22 -12 30 -3 8 -2 15 4 15 6 0 13 -14 17 -31 4 -18 11 -27 16 -22 5 5 -1 29 -15 59 -20 41 -25 46 -32 30 -7 -17 -8 -17 -19 -3 -7 9 -15 14 -19 10z"/>
 </g>
<g id="layer120" fill="#fad091" stroke="none">
 <path d="M1280 1752 c0 -11 4 -24 10 -27 5 -3 14 -23 20 -45 6 -21 24 -53 40 -70 18 -19 30 -43 30 -59 0 -37 14 -54 38 -47 28 9 37 53 16 77 -9 11 -13 19 -8 19 15 0 34 52 34 92 0 49 -24 65 -112 74 -64 6 -68 6 -68 -14z"/>
 <path d="M1151 1734 c-26 -33 -26 -44 0 -94 22 -42 52 -53 63 -24 3 9 6 45 6 80 0 61 -1 64 -24 64 -15 0 -33 -11 -45 -26z"/>
 <path d="M993 1677 c-35 -23 -63 -47 -63 -54 0 -14 88 -73 110 -73 34 0 54 37 52 96 -2 89 -9 91 -99 31z"/>
 <path d="M1506 1671 c-3 -5 -7 -29 -9 -53 -2 -25 -7 -50 -11 -56 -3 -5 -3 -17 0 -26 13 -34 133 -9 149 31 7 19 -17 53 -37 53 -10 0 -24 14 -33 30 -15 29 -47 40 -59 21z"/>
 <path d="M890 1579 c0 -6 -13 -22 -30 -36 -16 -13 -30 -29 -30 -34 0 -26 123 -70 143 -50 16 16 -10 87 -40 110 -28 23 -43 27 -43 10z"/>
 <path d="M800 1450 c-15 -28 -3 -59 25 -66 30 -7 53 5 34 17 -11 7 -11 9 2 9 8 0 20 -5 27 -12 6 -6 14 -9 17 -7 8 9 -62 79 -78 79 -9 0 -21 -9 -27 -20z"/>
 <path d="M1720 1426 c0 -11 -9 -13 -35 -9 -28 4 -36 2 -41 -13 -3 -11 -10 -27 -15 -36 -6 -12 -3 -22 9 -34 9 -10 17 -22 18 -28 0 -6 7 -26 15 -44 10 -25 23 -35 53 -43 61 -17 66 17 15 113 -19 36 -19 36 1 31 28 -7 50 14 50 48 0 26 -3 29 -35 29 -24 0 -35 -5 -35 -14z"/>
 <path d="M767 1343 c-4 -3 -7 -37 -7 -75 0 -66 1 -69 23 -66 27 4 77 34 77 47 0 4 -8 18 -17 29 -10 12 -26 33 -36 47 -18 26 -28 30 -40 18z"/>
 <path d="M1708 1173 c-17 -3 -28 -11 -28 -20 0 -10 -6 -13 -16 -9 -25 9 -59 -25 -59 -59 0 -41 18 -70 39 -62 19 8 36 -27 36 -73 0 -68 54 -31 85 58 9 26 25 64 36 84 10 20 19 48 19 62 0 24 -3 26 -42 25 -24 -1 -55 -4 -70 -6z"/>
 <path d="M877 1045 c-4 -8 -2 -17 3 -20 6 -4 10 3 10 14 0 25 -6 27 -13 6z"/>
 <path d="M843 1043 c4 -3 10 -3 14 0 3 4 0 7 -7 7 -7 0 -10 -3 -7 -7z"/>
 <path d="M1630 998 c0 -7 8 -22 16 -33 15 -19 15 -19 12 9 -3 29 -28 51 -28 24z"/>
 <path d="M1522 911 c2 -14 9 -26 16 -29 17 -5 15 10 -3 34 -15 18 -15 18 -13 -5z"/>
 <path d="M1565 903 c4 -10 9 -33 12 -50 6 -34 0 -38 -54 -36 -7 1 -13 -7 -13 -17 0 -16 5 -17 39 -8 73 18 104 74 63 111 -25 23 -56 23 -47 0z"/>
 <path d="M1649 907 c15 -19 41 -23 41 -7 0 6 -4 10 -9 10 -5 0 -18 3 -28 7 -16 6 -16 5 -4 -10z"/>
 <path d="M957 893 c-10 -9 -9 -53 1 -53 12 0 32 46 25 54 -8 8 -18 8 -26 -1z"/>
 <path d="M1018 834 c-5 -4 -8 -16 -8 -28 0 -14 3 -17 11 -9 6 6 9 19 7 28 -1 9 -6 13 -10 9z"/>
 <path d="M1387 806 c-4 -9 1 -20 10 -25 14 -7 15 -12 5 -24 -18 -21 -4 -25 45 -12 35 9 40 13 32 28 -11 20 -39 23 -39 5 0 -7 -6 -2 -13 11 -15 30 -33 37 -40 17z"/>
 <path d="M1305 791 c-3 -5 -1 -12 5 -16 5 -3 10 1 10 9 0 18 -6 21 -15 7z"/>
 <path d="M93 331 c2 -11 -4 -33 -14 -50 -22 -37 -8 -50 20 -19 18 18 21 19 21 5 0 -9 7 -17 16 -17 14 0 14 2 0 22 -9 12 -16 35 -16 50 0 19 -5 28 -16 28 -11 0 -15 -6 -11 -19z"/>
 <path d="M168 300 c4 -50 4 -50 38 -50 19 0 34 5 34 11 0 6 -9 8 -20 4 -14 -5 -20 -2 -20 9 0 9 7 16 15 16 8 0 15 5 15 11 0 6 -7 9 -15 5 -10 -4 -15 1 -15 14 0 23 10 26 28 8 9 -9 12 -8 12 5 0 13 -9 17 -37 17 l-38 0 3 -50z"/>
 <path d="M258 300 c3 -34 8 -50 18 -50 10 0 13 10 9 41 -5 40 -5 41 20 37 17 -4 25 -1 25 8 0 9 -13 14 -37 14 l-38 0 3 -50z"/>
 <path d="M349 348 c0 -2 -1 -24 -2 -51 -2 -36 1 -47 13 -47 12 0 15 9 12 41 -4 38 -3 40 19 37 18 -2 25 -10 27 -31 7 -58 91 -71 105 -16 13 49 -45 88 -82 55 -16 -15 -19 -15 -24 -1 -5 12 -65 23 -68 13z m151 -53 c0 -30 -22 -49 -38 -33 -16 16 -15 65 1 71 18 7 37 -12 37 -38z"/>
 <path d="M602 334 c-10 -16 -13 -17 -21 -4 -12 17 -13 17 -40 -38 -32 -63 -12 -68 23 -7 l17 30 -5 -32 c-3 -19 -1 -33 4 -33 6 0 10 6 10 13 0 6 5 4 11 -6 6 -9 15 -15 20 -11 6 4 6 11 -1 19 -7 8 -10 22 -7 32 3 14 7 10 17 -14 6 -18 16 -33 21 -33 12 0 12 0 -14 55 -22 44 -25 47 -35 29z"/>
 </g>
<g id="layer121" fill="#f1df97" stroke="none">
 <path d="M1168 1739 c-33 -24 -35 -53 -10 -103 18 -37 46 -47 56 -20 3 9 6 45 6 80 0 71 -7 77 -52 43z"/>
 <path d="M1296 1722 c35 -81 59 -122 76 -128 14 -4 18 -16 18 -50 0 -38 3 -45 17 -42 10 2 24 16 31 32 13 25 12 29 -7 42 -21 15 -21 15 -2 35 26 29 34 67 21 99 -13 30 -57 47 -127 49 l-43 1 16 -38z"/>
 <path d="M1030 1690 c-55 -30 -94 -65 -86 -78 4 -7 28 -24 53 -39 l46 -27 24 29 c16 18 23 35 19 49 -3 12 -6 36 -6 54 0 37 -3 38 -50 12z"/>
 <path d="M1513 1654 c-6 -16 -14 -53 -18 -81 l-6 -53 33 0 c43 0 102 32 106 57 2 13 -6 24 -25 33 -15 8 -40 28 -54 44 l-25 29 -11 -29z"/>
 <path d="M895 1560 c-3 -11 -13 -20 -21 -20 -8 0 -14 -6 -14 -14 0 -8 -8 -16 -17 -18 -29 -6 60 -48 102 -48 19 0 35 4 35 9 0 33 -50 111 -71 111 -4 0 -11 -9 -14 -20z"/>
 <path d="M812 1454 c-7 -8 -10 -14 -6 -14 3 0 1 -6 -5 -14 -10 -11 -7 -17 11 -30 32 -23 51 -21 43 5 -6 18 -5 20 14 10 25 -14 28 1 5 23 -28 29 -48 35 -62 20z"/>
 <path d="M1730 1411 c0 -31 21 -46 39 -28 16 16 14 44 -5 51 -28 11 -34 7 -34 -23z"/>
 <path d="M1653 1408 c-4 -7 -8 -15 -9 -18 0 -3 -4 -14 -9 -24 -6 -14 -3 -23 11 -33 10 -8 18 -22 16 -33 -2 -10 2 -21 8 -25 5 -3 10 -14 10 -24 0 -16 34 -31 71 -31 19 0 8 72 -16 108 -14 20 -25 42 -25 48 0 11 -32 44 -43 44 -3 0 -9 -6 -14 -12z"/>
 <path d="M770 1292 c0 -60 25 -91 59 -72 24 12 28 48 6 56 -8 4 -15 14 -15 23 0 20 -19 41 -37 41 -9 0 -13 -15 -13 -48z"/>
 <path d="M1740 1170 c-8 -5 -25 -10 -37 -10 -13 0 -23 -4 -23 -10 0 -5 -9 -10 -21 -10 -45 0 -70 -65 -38 -103 16 -19 20 -20 28 -7 8 11 12 9 20 -13 6 -16 11 -41 11 -57 0 -16 6 -30 12 -32 13 -5 48 33 48 51 0 6 5 11 10 11 6 0 10 14 10 31 0 17 9 43 19 58 11 15 22 43 26 64 7 36 6 37 -21 37 -16 0 -36 -5 -44 -10z"/>
 <path d="M1637 1003 c-3 -5 0 -19 8 -29 15 -20 18 -11 6 20 -4 11 -10 15 -14 9z"/>
 <path d="M1520 913 c0 -12 7 -23 15 -27 13 -5 14 -2 4 17 -17 32 -19 33 -19 10z"/>
 <path d="M1565 903 c4 -10 9 -27 12 -38 11 -46 12 -48 28 -35 8 7 15 26 15 41 0 22 -6 32 -26 39 -34 13 -37 13 -29 -7z"/>
 <path d="M1665 900 c3 -5 8 -10 11 -10 2 0 4 5 4 10 0 6 -5 10 -11 10 -5 0 -7 -4 -4 -10z"/>
 <path d="M954 887 c-3 -9 -3 -25 1 -34 6 -16 8 -15 16 6 6 16 6 28 0 34 -7 7 -12 5 -17 -6z"/>
 <path d="M1016 821 c-4 -7 -5 -15 -2 -18 9 -9 19 4 14 18 -4 11 -6 11 -12 0z"/>
 <path d="M1545 810 c-4 -6 3 -10 14 -10 25 0 27 6 6 13 -8 4 -17 2 -20 -3z"/>
 <path d="M1390 801 c0 -5 7 -12 15 -15 9 -3 15 -12 13 -20 -2 -8 2 -15 7 -15 12 0 7 29 -7 47 -12 14 -28 16 -28 3z"/>
 <path d="M1510 800 c0 -7 3 -10 7 -7 3 4 3 10 0 14 -4 3 -7 0 -7 -7z"/>
 <path d="M1450 770 c0 -5 7 -10 16 -10 8 0 12 5 9 10 -3 6 -10 10 -16 10 -5 0 -9 -4 -9 -10z"/>
 <path d="M95 339 c-4 -6 -4 -13 -1 -16 3 -3 -1 -18 -9 -34 -8 -15 -15 -33 -15 -38 0 -18 28 0 35 22 l8 22 4 -22 c2 -13 11 -23 19 -23 13 0 13 3 0 22 -9 12 -16 35 -16 50 0 28 -13 37 -25 17z"/>
 <path d="M170 300 l0 -50 35 0 c19 0 35 4 35 9 0 5 -9 7 -20 4 -14 -4 -20 0 -20 10 0 9 8 18 18 20 16 4 16 5 0 6 -12 1 -18 9 -18 26 0 16 -6 25 -15 25 -11 0 -15 -12 -15 -50z"/>
 <path d="M226 335 c4 -8 8 -15 10 -15 2 0 4 7 4 15 0 8 -4 15 -10 15 -5 0 -7 -7 -4 -15z"/>
 <path d="M260 300 c0 -33 4 -50 13 -50 8 0 12 17 12 50 0 33 -4 50 -12 50 -9 0 -13 -17 -13 -50z"/>
 <path d="M349 346 c-8 -8 3 -96 12 -96 5 0 9 18 9 40 0 22 0 43 1 47 1 9 -15 15 -22 9z"/>
 <path d="M395 340 c-3 -5 1 -10 10 -10 9 0 13 5 10 10 -3 6 -8 10 -10 10 -2 0 -7 -4 -10 -10z"/>
 <path d="M439 331 c-20 -16 -22 -23 -14 -47 6 -15 16 -29 24 -32 11 -4 12 0 6 14 -18 43 4 85 32 62 18 -15 16 -48 -4 -71 -11 -12 -12 -17 -4 -12 8 4 27 8 42 7 17 0 29 5 29 12 0 7 7 21 16 32 15 18 15 17 10 -13 -3 -18 -3 -33 0 -33 11 0 32 27 36 46 4 15 8 12 20 -16 9 -19 17 -29 17 -22 1 19 -29 82 -39 82 -5 0 -11 -6 -14 -12 -5 -10 -7 -10 -12 0 -10 21 -21 13 -38 -28 -18 -44 -32 -54 -22 -15 4 17 0 31 -14 45 -25 25 -41 25 -71 1z"/>
 <path d="M320 330 c0 -7 3 -10 7 -7 3 4 3 10 0 14 -4 3 -7 0 -7 -7z"/>
 <path d="M606 261 c-4 -5 -2 -12 3 -15 5 -4 12 -2 15 3 4 5 2 12 -3 15 -5 4 -12 2 -15 -3z"/>
 </g>
<g id="layer122" fill="#fad8b2" stroke="none">
 <path d="M1168 1739 c-33 -24 -35 -53 -10 -103 18 -37 46 -47 56 -20 3 9 6 45 6 80 0 71 -7 77 -52 43z"/>
 <path d="M1296 1723 c35 -82 59 -123 76 -129 14 -4 18 -16 18 -50 0 -38 3 -45 17 -42 10 2 24 16 31 32 13 25 12 29 -7 42 -21 15 -21 15 -2 35 26 29 34 67 21 100 -12 29 -55 44 -132 48 l-38 2 16 -38z"/>
 <path d="M1030 1690 c-55 -30 -94 -65 -86 -78 4 -7 28 -24 53 -39 l46 -27 24 29 c16 18 23 35 19 49 -3 12 -6 36 -6 54 0 37 -3 38 -50 12z"/>
 <path d="M1511 1651 c-6 -10 -10 -31 -10 -47 0 -16 -1 -40 -3 -54 -3 -23 0 -25 37 -24 46 0 95 28 95 54 0 10 -14 24 -32 33 -18 9 -39 25 -46 36 -15 26 -28 27 -41 2z"/>
 <path d="M895 1560 c-3 -11 -13 -20 -21 -20 -8 0 -14 -6 -14 -14 0 -8 -8 -16 -17 -19 -13 -3 -5 -10 27 -25 46 -22 110 -29 110 -13 0 33 -50 111 -71 111 -4 0 -11 -9 -14 -20z"/>
 <path d="M815 1456 c-19 -21 -17 -54 4 -65 30 -17 43 -13 36 9 -7 22 5 26 23 8 8 -8 12 -9 12 -1 0 28 -60 67 -75 49z"/>
 <path d="M1730 1412 c0 -32 20 -48 39 -29 13 13 15 47 2 47 -5 0 -16 3 -25 6 -12 5 -16 -1 -16 -24z"/>
 <path d="M1665 1412 c-13 -9 -35 -49 -35 -62 0 -6 12 -15 27 -21 18 -7 23 -13 15 -18 -9 -5 -9 -15 0 -42 7 -18 13 -35 13 -36 0 0 16 -4 36 -8 36 -7 36 -6 37 30 1 24 -7 49 -23 73 -14 20 -25 42 -25 48 0 17 -34 44 -45 36z"/>
 <path d="M770 1292 c0 -60 25 -91 59 -72 24 12 28 48 6 56 -8 4 -15 14 -15 23 0 20 -19 41 -37 41 -9 0 -13 -15 -13 -48z"/>
 <path d="M1740 1170 c-8 -5 -25 -10 -37 -10 -13 0 -23 -4 -23 -10 0 -5 -9 -10 -21 -10 -22 0 -55 -27 -46 -37 4 -3 2 -14 -3 -23 -13 -25 24 -73 39 -50 14 21 21 9 28 -49 3 -30 11 -51 18 -51 15 0 45 32 45 48 0 7 5 12 10 12 6 0 10 14 10 31 0 17 8 43 19 57 10 15 22 41 25 58 6 27 4 32 -16 38 -30 8 -30 7 -48 -4z"/>
 <path d="M1637 1003 c-3 -5 0 -19 8 -29 15 -20 18 -11 6 20 -4 11 -10 15 -14 9z"/>
 <path d="M1520 918 c0 -9 7 -22 17 -29 15 -13 15 -12 3 11 -17 34 -20 36 -20 18z"/>
 <path d="M1573 881 c18 -68 16 -64 33 -50 9 7 14 24 12 42 -2 23 -9 32 -29 38 -26 6 -26 6 -16 -30z"/>
 <path d="M1665 900 c3 -5 8 -10 11 -10 2 0 4 5 4 10 0 6 -5 10 -11 10 -5 0 -7 -4 -4 -10z"/>
 <path d="M955 880 c-3 -5 -3 -15 1 -21 6 -11 23 6 24 24 0 10 -18 9 -25 -3z"/>
 <path d="M1016 821 c-4 -7 -5 -15 -2 -18 9 -9 19 4 14 18 -4 11 -6 11 -12 0z"/>
 <path d="M1397 803 c-4 -6 0 -14 9 -17 9 -4 14 -13 10 -21 -3 -8 -1 -15 4 -15 14 0 12 23 -3 45 -9 11 -16 14 -20 8z"/>
 <path d="M1553 803 c4 -3 10 -3 14 0 3 4 0 7 -7 7 -7 0 -10 -3 -7 -7z"/>
 <path d="M1450 770 c0 -5 7 -10 16 -10 8 0 12 5 9 10 -3 6 -10 10 -16 10 -5 0 -9 -4 -9 -10z"/>
 <path d="M267 343 c-13 -12 -8 -93 6 -93 8 0 12 15 11 45 -1 47 -6 60 -17 48z"/>
 <path d="M350 301 c0 -28 5 -51 10 -51 6 0 10 18 10 40 0 22 0 43 1 47 0 4 -4 9 -10 11 -7 2 -11 -15 -11 -47z"/>
 <path d="M453 340 c-27 -11 -38 -43 -23 -70 13 -25 35 -27 25 -2 -18 42 5 83 33 59 9 -7 12 -23 9 -44 -6 -37 8 -45 19 -10 10 29 6 48 -14 64 -20 14 -20 14 -49 3z"/>
 <path d="M94 324 c3 -8 -1 -28 -9 -44 -19 -36 -19 -41 -1 -34 8 3 17 15 20 27 5 18 8 19 15 7 5 -8 7 -18 5 -22 -3 -4 0 -8 6 -8 8 0 9 7 5 18 -4 9 -10 29 -13 45 -2 15 -11 27 -19 27 -10 0 -13 -6 -9 -16z"/>
 <path d="M174 295 c1 -29 6 -45 14 -45 6 0 12 9 12 19 0 11 8 22 18 24 16 4 16 5 0 6 -11 1 -18 9 -18 21 0 11 -6 20 -14 20 -9 0 -13 -13 -12 -45z"/>
 <path d="M230 330 c0 -7 3 -10 7 -7 3 4 3 10 0 14 -4 3 -7 0 -7 -7z"/>
 <path d="M320 330 c0 -7 3 -10 7 -7 3 4 3 10 0 14 -4 3 -7 0 -7 -7z"/>
 <path d="M403 333 c4 -3 10 -3 14 0 3 4 0 7 -7 7 -7 0 -10 -3 -7 -7z"/>
 <path d="M546 300 c-18 -46 -19 -50 -8 -50 4 0 13 14 19 31 7 17 17 28 23 24 7 -4 7 -12 -1 -26 -13 -25 -2 -40 12 -19 8 11 12 12 16 3 2 -7 10 -13 16 -13 8 0 7 4 -1 12 -18 18 -15 51 3 44 12 -4 13 -2 2 14 -14 23 -23 25 -31 8 -5 -10 -7 -10 -12 0 -10 21 -21 13 -38 -28z"/>
 <path d="M637 269 c4 -13 8 -18 11 -10 2 7 -1 18 -6 23 -8 8 -9 4 -5 -13z"/>
 <path d="M218 253 c7 -3 16 -2 19 1 4 3 -2 6 -13 5 -11 0 -14 -3 -6 -6z"/>
 </g>
<g id="layer123" fill="#fbe5b3" stroke="none">
 <path d="M1202 1734 c-7 -8 -17 -12 -21 -9 -5 2 -16 -4 -26 -15 -18 -20 -18 -22 4 -65 24 -49 35 -55 49 -27 8 15 16 133 10 132 -2 -1 -9 -7 -16 -16z m-15 -51 c-4 -3 -10 -3 -14 0 -3 4 0 7 7 7 7 0 10 -3 7 -7z"/>
 <path d="M1300 1735 c0 -8 5 -17 10 -20 6 -3 10 -19 10 -36 0 -16 4 -29 9 -29 5 0 12 -11 15 -24 9 -38 67 -44 80 -8 3 9 11 24 17 33 18 24 3 68 -26 79 -45 17 -115 20 -115 5z"/>
 <path d="M1024 1666 c-11 -6 -28 -19 -38 -29 -10 -9 -22 -15 -27 -12 -11 8 -11 -6 0 -24 5 -8 14 -10 22 -6 8 5 11 5 7 0 -10 -11 22 -34 47 -35 11 0 26 9 33 20 10 17 10 20 -3 20 -17 0 -20 25 -5 35 6 3 10 16 10 28 -1 21 -1 21 -16 -3 -14 -23 -14 -23 -9 -2 4 12 5 22 3 21 -2 -1 -12 -6 -24 -13z"/>
 <path d="M1530 1639 c0 -5 -4 -8 -9 -5 -5 4 -8 -10 -6 -31 1 -20 -2 -45 -8 -55 -16 -24 -5 -30 37 -22 52 9 84 37 70 61 -6 10 -21 20 -34 21 -12 2 -25 12 -27 23 -6 20 -23 27 -23 8z"/>
 <path d="M1392 1540 c2 -46 11 -50 34 -15 13 20 14 28 4 40 -24 29 -41 18 -38 -25z"/>
 <path d="M914 1555 c4 -11 -3 -19 -20 -25 -22 -9 -24 -13 -14 -25 15 -18 -1 -20 -18 -3 -9 9 -12 9 -12 -1 0 -15 60 -41 95 -41 21 0 25 5 25 28 0 16 -10 41 -23 55 -25 30 -42 36 -33 12z"/>
 <path d="M817 1439 c-10 -11 -17 -20 -17 -22 0 -1 18 -2 40 -2 46 0 48 4 16 27 -22 16 -24 15 -39 -3z"/>
 <path d="M1650 1391 c0 -12 -4 -21 -10 -21 -5 0 -10 -6 -10 -14 0 -14 36 -32 53 -28 4 1 7 -2 7 -8 0 -5 -7 -10 -15 -10 -19 0 -19 -10 -1 -35 7 -11 14 -24 15 -30 0 -5 11 -11 25 -13 22 -3 24 0 21 40 -2 24 -14 63 -28 88 -26 49 -57 66 -57 31z"/>
 <path d="M1745 1400 c4 -6 11 -8 16 -5 14 9 11 15 -7 15 -8 0 -12 -5 -9 -10z"/>
 <path d="M828 1393 c6 -2 18 -2 25 0 6 3 1 5 -13 5 -14 0 -19 -2 -12 -5z"/>
 <path d="M776 1314 c-5 -12 -2 -15 10 -10 13 5 14 3 7 -6 -28 -38 10 -99 42 -67 17 17 11 49 -10 49 -8 0 -15 10 -17 22 -4 27 -23 34 -32 12z"/>
 <path d="M1734 1155 c6 -18 -15 -20 -32 -3 -17 17 -27 1 -11 -19 15 -18 16 -18 -36 3 -10 4 -15 0 -15 -10 0 -8 -6 -13 -12 -11 -9 4 -13 -7 -13 -37 0 -33 4 -43 17 -46 12 -2 16 1 12 11 -3 8 -1 18 5 22 6 3 11 0 11 -7 0 -7 7 -26 15 -41 9 -17 12 -40 8 -58 -6 -29 -5 -30 15 -18 22 14 55 76 47 89 -3 5 4 25 16 44 11 20 22 50 23 66 2 27 -1 30 -27 30 -22 0 -28 -4 -23 -15z m26 -45 c0 -5 -2 -10 -4 -10 -3 0 -8 5 -11 10 -3 6 -1 10 4 10 6 0 11 -4 11 -10z"/>
 <path d="M1640 990 c0 -7 3 -10 7 -7 3 4 3 10 0 14 -4 3 -7 0 -7 -7z"/>
 <path d="M1520 910 c0 -5 5 -10 11 -10 5 0 7 5 4 10 -3 6 -8 10 -11 10 -2 0 -4 -4 -4 -10z"/>
 <path d="M1575 897 c2 -7 6 -25 10 -42 l7 -30 15 29 c11 20 12 31 4 39 -15 15 -40 17 -36 4z"/>
 <path d="M955 880 c-3 -5 -3 -15 1 -21 6 -11 23 6 24 24 0 10 -18 9 -25 -3z"/>
 <path d="M1017 823 c-4 -3 -7 -11 -7 -17 0 -6 5 -5 12 2 6 6 9 14 7 17 -3 3 -9 2 -12 -2z"/>
 <path d="M1421 764 c0 -11 3 -14 6 -6 3 7 2 16 -1 19 -3 4 -6 -2 -5 -13z"/>
 <path d="M1460 770 c0 -7 3 -10 7 -7 3 4 3 10 0 14 -4 3 -7 0 -7 -7z"/>
 <path d="M350 301 c0 -28 5 -51 10 -51 6 0 10 20 10 44 0 25 -4 48 -10 51 -6 4 -10 -13 -10 -44z"/>
 <path d="M94 324 c3 -8 -1 -28 -9 -45 -13 -24 -13 -29 -1 -29 7 0 17 10 20 23 l6 22 16 -25 c10 -16 13 -18 8 -5 -4 11 -9 32 -12 48 -2 15 -11 27 -19 27 -10 0 -13 -6 -9 -16z"/>
 <path d="M174 295 c0 -27 6 -45 13 -45 6 0 10 8 9 18 -2 10 5 20 18 24 20 6 20 6 -3 7 -18 1 -22 5 -18 21 3 12 0 20 -8 20 -8 0 -12 -14 -11 -45z"/>
 <path d="M260 295 c0 -25 4 -45 9 -45 5 0 11 20 13 45 2 31 -1 45 -9 45 -9 0 -13 -16 -13 -45z"/>
 <path d="M320 330 c0 -7 3 -10 7 -7 3 4 3 10 0 14 -4 3 -7 0 -7 -7z"/>
 <path d="M403 333 c4 -3 10 -3 14 0 3 4 0 7 -7 7 -7 0 -10 -3 -7 -7z"/>
 <path d="M429 319 c-8 -16 -8 -27 2 -45 7 -13 16 -24 21 -24 5 0 4 9 -2 19 -7 13 -7 28 0 45 12 32 -4 35 -21 5z"/>
 <path d="M495 295 c0 -34 3 -41 13 -33 6 6 12 23 12 38 0 15 -6 30 -12 33 -9 3 -13 -8 -13 -38z"/>
 <path d="M552 313 c-5 -16 -13 -36 -17 -45 -4 -10 -3 -18 2 -18 5 0 14 14 20 31 7 17 17 28 23 24 7 -4 7 -12 -1 -26 -14 -26 -5 -36 15 -16 8 8 12 18 8 22 -4 3 1 12 10 19 11 8 14 17 7 27 -8 12 -10 12 -20 -1 -8 -11 -12 -12 -16 -2 -8 20 -20 14 -31 -15z"/>
 <path d="M640 260 c0 -7 3 -10 7 -7 3 4 3 10 0 14 -4 3 -7 0 -7 -7z"/>
 </g>
<g id="layer124" fill="#fadccb" stroke="none">
 <path d="M1300 1735 c0 -8 5 -17 10 -20 6 -3 10 -15 10 -25 0 -28 38 -87 59 -93 25 -6 42 9 67 61 11 23 -6 63 -31 72 -45 17 -115 20 -115 5z m57 -32 c-4 -3 -7 0 -7 7 0 7 3 10 7 7 3 -4 3 -10 0 -14z"/>
 <path d="M1200 1731 c-8 -6 -17 -8 -21 -6 -3 3 -15 -5 -25 -16 -18 -19 -17 -21 6 -65 37 -66 49 -58 57 37 2 32 3 59 1 59 -2 0 -10 -4 -18 -9z m-15 -41 c3 -5 1 -10 -4 -10 -6 0 -11 5 -11 10 0 6 2 10 4 10 3 0 8 -4 11 -10z"/>
 <path d="M1055 1660 c-6 -20 -9 -22 -14 -9 -8 21 -51 7 -51 -16 0 -8 -9 -15 -20 -15 -13 0 -18 -5 -13 -16 3 -8 12 -13 20 -10 8 3 12 2 9 -3 -3 -5 8 -14 25 -21 27 -12 33 -11 52 8 19 19 19 22 4 22 -19 0 -23 20 -6 37 6 6 9 19 7 29 -4 16 -5 15 -13 -6z"/>
 <path d="M1530 1633 c0 -15 -2 -16 -9 -3 -7 9 -9 1 -6 -25 1 -22 -1 -45 -5 -50 -5 -6 -5 -17 0 -25 7 -11 13 -12 32 -3 13 7 32 13 42 15 30 5 43 33 23 52 -8 9 -23 16 -32 16 -9 0 -19 9 -22 20 -7 25 -23 26 -23 3z"/>
 <path d="M1400 1540 c0 -37 2 -41 16 -30 17 15 15 61 -3 68 -9 2 -13 -9 -13 -38z"/>
 <path d="M914 1557 c4 -13 -2 -20 -21 -28 -22 -8 -24 -12 -13 -19 8 -5 11 -12 7 -16 -3 -4 -13 -1 -22 6 -10 8 -15 9 -15 2 0 -16 30 -30 79 -38 39 -6 41 -6 41 20 0 17 -12 39 -31 59 -19 20 -29 25 -25 14z"/>
 <path d="M833 1455 c4 -5 -3 -15 -15 -22 -21 -11 -20 -12 21 -13 24 0 42 1 40 3 -2 1 -15 11 -29 22 -14 11 -21 16 -17 10z"/>
 <path d="M1647 1381 c-16 -32 -7 -51 25 -51 10 0 18 -4 18 -10 0 -5 -7 -10 -15 -10 -16 0 -21 -16 -6 -22 5 -1 11 -12 13 -23 4 -23 16 -35 39 -35 24 0 17 74 -13 129 -30 56 -42 60 -61 22z m30 -28 c-4 -3 -7 0 -7 7 0 7 3 10 7 7 3 -4 3 -10 0 -14z"/>
 <path d="M1745 1400 c4 -6 11 -8 16 -5 14 9 11 15 -7 15 -8 0 -12 -5 -9 -10z"/>
 <path d="M828 1393 c7 -3 16 -2 19 1 4 3 -2 6 -13 5 -11 0 -14 -3 -6 -6z"/>
 <path d="M783 1323 c4 -3 10 -3 14 0 3 4 0 7 -7 7 -7 0 -10 -3 -7 -7z"/>
 <path d="M791 1297 c-11 -14 -11 -17 0 -17 12 0 12 -2 0 -9 -17 -11 -8 -39 15 -48 8 -3 22 1 30 9 17 16 9 48 -11 48 -8 0 -15 7 -17 17 -3 15 -4 15 -17 0z"/>
 <path d="M1739 1163 c-1 -5 -1 -11 0 -15 1 -11 -17 -10 -40 2 -20 11 -26 1 -8 -17 7 -7 6 -12 -6 -17 -9 -3 -14 -2 -11 3 3 5 -1 12 -10 15 -23 9 -24 8 -24 -15 0 -12 -8 -28 -17 -35 -14 -10 -16 -17 -7 -30 16 -26 33 -29 27 -5 -3 12 -1 21 6 21 6 0 11 -6 11 -12 0 -7 7 -26 16 -43 8 -16 12 -40 9 -52 -6 -23 1 -28 21 -15 17 11 46 71 39 82 -3 5 2 21 11 35 9 15 19 44 21 66 3 34 1 39 -16 39 -12 0 -22 -3 -22 -7z m21 -49 c0 -8 -5 -12 -10 -9 -6 4 -8 11 -5 16 9 14 15 11 15 -7z"/>
 <path d="M1620 1110 c0 -7 3 -10 7 -7 3 4 3 10 0 14 -4 3 -7 0 -7 -7z"/>
 <path d="M1640 990 c0 -7 3 -10 7 -7 3 4 3 10 0 14 -4 3 -7 0 -7 -7z"/>
 <path d="M1520 910 c0 -7 3 -10 7 -7 3 4 3 10 0 14 -4 3 -7 0 -7 -7z"/>
 <path d="M1586 901 c-3 -5 -3 -23 0 -41 7 -35 24 -23 24 17 0 24 -15 39 -24 24z"/>
 <path d="M961 874 c0 -11 3 -14 6 -6 3 7 2 16 -1 19 -3 4 -6 -2 -5 -13z"/>
 <path d="M96 326 c3 -8 -2 -28 -11 -45 -13 -26 -13 -31 -1 -31 13 0 24 21 32 68 3 15 0 22 -10 22 -9 0 -13 -6 -10 -14z"/>
 <path d="M178 295 c5 -58 18 -58 17 0 0 25 -5 45 -10 45 -6 0 -9 -19 -7 -45z"/>
 <path d="M262 299 c3 -56 15 -58 20 -4 2 32 -1 45 -10 45 -9 0 -12 -13 -10 -41z"/>
 <path d="M350 295 c0 -25 5 -45 10 -45 6 0 10 20 10 45 0 25 -4 45 -10 45 -5 0 -10 -20 -10 -45z"/>
 <path d="M431 318 c-5 -13 -5 -31 1 -40 11 -22 22 -24 14 -3 -3 8 -1 26 4 40 6 16 6 25 -1 25 -5 0 -13 -10 -18 -22z"/>
 <path d="M566 333 c-7 -7 -36 -71 -36 -79 0 -2 5 -4 10 -4 6 0 10 6 10 13 0 18 27 53 35 45 4 -3 1 -16 -5 -28 -6 -12 -9 -24 -6 -27 8 -8 33 21 29 34 -2 6 1 14 6 18 6 3 11 14 11 23 -1 15 -2 15 -14 -1 -13 -17 -15 -17 -23 -2 -5 8 -13 12 -17 8z"/>
 <path d="M500 306 c0 -13 -3 -33 -7 -43 -6 -16 -5 -16 10 -4 18 14 24 71 7 71 -5 0 -10 -11 -10 -24z"/>
 <path d="M213 293 c4 -3 10 -3 14 0 3 4 0 7 -7 7 -7 0 -10 -3 -7 -7z"/>
 <path d="M130 260 c0 -7 3 -10 7 -7 3 4 3 10 0 14 -4 3 -7 0 -7 -7z"/>
 <path d="M640 260 c0 -7 3 -10 7 -7 3 4 3 10 0 14 -4 3 -7 0 -7 -7z"/>
 </g>
<g id="layer125" fill="#fbe7cd" stroke="none">
 <path d="M1211 1724 c0 -11 3 -14 6 -6 3 7 2 16 -1 19 -3 4 -6 -2 -5 -13z"/>
 <path d="M1323 1675 c0 -7 6 -11 14 -8 7 3 13 6 13 8 0 2 -6 5 -13 8 -8 3 -14 -1 -14 -8z"/>
 <path d="M1160 1650 c0 -7 3 -10 7 -7 3 4 3 10 0 14 -4 3 -7 0 -7 -7z"/>
 <path d="M1346 1643 c-6 -14 -5 -15 5 -6 7 7 10 15 7 18 -3 3 -9 -2 -12 -12z"/>
 <path d="M1175 1620 c3 -5 8 -10 11 -10 3 0 2 5 -1 10 -3 6 -8 10 -11 10 -3 0 -2 -4 1 -10z"/>
 <path d="M1040 1610 c0 -7 3 -10 7 -7 3 4 3 10 0 14 -4 3 -7 0 -7 -7z"/>
 <path d="M997 1593 c-8 -8 23 -32 42 -33 8 0 11 3 7 8 -4 4 -13 7 -19 7 -7 1 -11 6 -9 13 2 13 -10 16 -21 5z"/>
 <path d="M926 1545 c4 -8 11 -15 16 -15 6 0 5 6 -2 15 -7 8 -14 15 -16 15 -2 0 -1 -7 2 -15z"/>
 <path d="M1523 1553 c4 -3 10 -3 14 0 3 4 0 7 -7 7 -7 0 -10 -3 -7 -7z"/>
 <path d="M1563 1543 c4 -3 10 -3 14 0 3 4 0 7 -7 7 -7 0 -10 -3 -7 -7z"/>
 <path d="M893 1513 c4 -3 10 -3 14 0 3 4 0 7 -7 7 -7 0 -10 -3 -7 -7z"/>
 <path d="M1400 1509 c0 -5 5 -7 10 -4 6 3 10 8 10 11 0 2 -4 4 -10 4 -5 0 -10 -5 -10 -11z"/>
 <path d="M945 1481 c-6 -11 9 -23 19 -14 9 9 7 23 -3 23 -6 0 -12 -4 -16 -9z"/>
 <path d="M908 1473 c7 -3 16 -2 19 1 4 3 -2 6 -13 5 -11 0 -14 -3 -6 -6z"/>
 <path d="M828 1393 c7 -3 16 -2 19 1 4 3 -2 6 -13 5 -11 0 -14 -3 -6 -6z"/>
 <path d="M1642 1361 c-10 -6 -10 -10 3 -21 8 -7 19 -10 22 -6 4 4 1 11 -6 15 -11 7 -11 10 0 14 8 3 10 6 4 6 -5 0 -16 -3 -23 -8z"/>
 <path d="M1670 1300 c-12 -7 -10 -9 7 -7 12 0 19 5 17 9 -6 10 -6 10 -24 -2z"/>
 <path d="M820 1240 c-8 -5 -12 -11 -9 -14 2 -3 11 -1 19 4 8 5 12 11 9 14 -2 3 -11 1 -19 -4z"/>
 <path d="M1703 1233 c4 -3 10 -3 14 0 3 4 0 7 -7 7 -7 0 -10 -3 -7 -7z"/>
 <path d="M1680 1150 c0 -5 5 -10 11 -10 5 0 7 5 4 10 -3 6 -8 10 -11 10 -2 0 -4 -4 -4 -10z"/>
 <path d="M1640 1131 c0 -6 5 -11 10 -11 6 0 10 -11 10 -24 0 -13 3 -31 6 -40 5 -14 8 -14 21 -1 15 15 9 40 -8 30 -5 -4 -9 3 -9 13 0 11 -7 25 -15 32 -10 9 -15 9 -15 1z"/>
 <path d="M1616 1071 c-4 -7 -5 -15 -2 -18 9 -9 19 4 14 18 -4 11 -6 11 -12 0z"/>
 <path d="M1586 894 c-8 -21 -8 -24 3 -24 12 0 22 28 12 35 -5 3 -12 -2 -15 -11z"/>
 <path d="M1590 840 c0 -7 3 -10 7 -7 3 4 3 10 0 14 -4 3 -7 0 -7 -7z"/>
 <path d="M96 326 c3 -8 -2 -28 -11 -45 -13 -26 -13 -31 -1 -31 14 0 26 27 30 68 1 12 -4 22 -11 22 -7 0 -10 -6 -7 -14z"/>
 <path d="M178 295 c2 -25 7 -45 11 -45 3 0 6 20 6 45 0 25 -5 45 -10 45 -6 0 -9 -19 -7 -45z"/>
 <path d="M263 300 c0 -23 4 -43 9 -46 4 -3 8 15 8 40 0 25 -4 46 -8 46 -5 0 -9 -18 -9 -40z"/>
 <path d="M350 295 c0 -25 5 -45 10 -45 6 0 10 20 10 45 0 25 -4 45 -10 45 -5 0 -10 -20 -10 -45z"/>
 <path d="M431 318 c-5 -13 -5 -31 1 -40 12 -24 21 -23 13 2 -3 10 -1 28 5 40 7 14 8 20 0 20 -6 0 -14 -10 -19 -22z"/>
 <path d="M566 333 c-7 -7 -36 -71 -36 -79 0 -2 5 -4 10 -4 6 0 10 6 10 13 0 18 27 53 35 45 4 -3 1 -16 -5 -28 -6 -12 -9 -24 -6 -27 7 -8 31 19 32 37 1 8 5 24 9 35 6 19 6 19 -8 2 -14 -17 -16 -17 -24 -2 -5 8 -13 12 -17 8z"/>
 <path d="M500 306 c0 -13 -3 -33 -7 -43 -6 -16 -5 -16 10 -4 19 15 23 56 7 66 -6 3 -10 -5 -10 -19z"/>
 <path d="M130 260 c0 -7 3 -10 7 -7 3 4 3 10 0 14 -4 3 -7 0 -7 -7z"/>
 <path d="M640 260 c0 -7 3 -10 7 -7 3 4 3 10 0 14 -4 3 -7 0 -7 -7z"/>
 </g>
<g id="layer126" fill="#f6e2e9" stroke="none">
 <path d="M993 1583 c4 -3 10 -3 14 0 3 4 0 7 -7 7 -7 0 -10 -3 -7 -7z"/>
 <path d="M1403 1513 c4 -3 10 -3 14 0 3 4 0 7 -7 7 -7 0 -10 -3 -7 -7z"/>
 <path d="M956 1473 c-6 -14 -5 -15 5 -6 7 7 10 15 7 18 -3 3 -9 -2 -12 -12z"/>
 <path d="M1640 1346 c0 -2 7 -6 15 -10 8 -3 15 -1 15 4 0 6 -7 10 -15 10 -8 0 -15 -2 -15 -4z"/>
 <path d="M1643 1123 c4 -3 10 -3 14 0 3 4 0 7 -7 7 -7 0 -10 -3 -7 -7z"/>
 <path d="M1661 1094 c0 -11 3 -14 6 -6 3 7 2 16 -1 19 -3 4 -6 -2 -5 -13z"/>
 <path d="M1615 1071 c-3 -5 -1 -12 5 -16 5 -3 10 1 10 9 0 18 -6 21 -15 7z"/>
 <path d="M1585 880 c3 -5 8 -10 11 -10 3 0 2 5 -1 10 -3 6 -8 10 -11 10 -3 0 -2 -4 1 -10z"/>
 <path d="M97 318 c-3 -13 -9 -34 -13 -48 -5 -19 -4 -22 5 -14 15 14 32 84 21 84 -4 0 -10 -10 -13 -22z"/>
 <path d="M180 297 c0 -26 4 -47 8 -47 9 0 6 80 -3 88 -3 3 -5 -16 -5 -41z"/>
 <path d="M350 300 c0 -22 5 -40 10 -40 6 0 10 18 10 40 0 22 -4 40 -10 40 -5 0 -10 -18 -10 -40z"/>
 <path d="M551 299 c-12 -23 -19 -45 -16 -47 6 -6 7 -6 28 42 25 53 13 58 -12 5z"/>
 <path d="M605 330 c-3 -5 -1 -10 4 -10 6 0 11 5 11 10 0 6 -2 10 -4 10 -3 0 -8 -4 -11 -10z"/>
 <path d="M505 309 c2 -12 -1 -31 -7 -43 -10 -19 -10 -20 5 -7 18 15 23 56 8 66 -6 3 -8 -4 -6 -16z"/>
 <path d="M272 290 c0 -19 2 -27 5 -17 2 9 2 25 0 35 -3 9 -5 1 -5 -18z"/>
 <path d="M430 297 c0 -14 5 -29 10 -32 7 -4 8 3 4 22 -9 38 -14 42 -14 10z"/>
 <path d="M583 280 c-6 -16 -8 -30 -3 -30 4 0 13 14 19 30 5 17 7 30 3 30 -4 0 -13 -13 -19 -30z"/>
 </g>
<g id="layer127" fill="#f8faf4" stroke="none">
 <path d="M92 299 c-7 -23 -11 -43 -9 -46 7 -7 29 55 25 72 -1 9 -9 -3 -16 -26z"/>
 <path d="M180 297 c0 -26 4 -47 8 -47 9 0 6 80 -3 88 -3 3 -5 -16 -5 -41z"/>
 <path d="M350 300 c0 -22 5 -40 10 -40 6 0 10 18 10 40 0 22 -4 40 -10 40 -5 0 -10 -18 -10 -40z"/>
 <path d="M504 294 c0 -18 3 -31 8 -28 10 6 11 51 0 57 -4 3 -7 -10 -8 -29z"/>
 <path d="M547 293 c-23 -51 -13 -55 11 -4 11 23 17 41 13 41 -4 0 -14 -17 -24 -37z"/>
 <path d="M603 323 c4 -3 10 -3 14 0 3 4 0 7 -7 7 -7 0 -10 -3 -7 -7z"/>
 <path d="M272 290 c0 -19 2 -27 5 -17 2 9 2 25 0 35 -3 9 -5 1 -5 -18z"/>
 <path d="M430 296 c0 -14 4 -27 8 -30 5 -3 6 8 4 25 -5 35 -12 38 -12 5z"/>
 <path d="M583 280 c-6 -16 -8 -30 -4 -30 3 0 12 14 18 30 6 17 8 30 4 30 -3 0 -12 -13 -18 -30z"/>
 </g>

</svg>